SplineFontDB: 3.2
FontName: DockingBay94-Display
FullName: Docking Bay 94 Display
FamilyName: DockingBay94
Weight: Display
Copyright: CC-0 Public Domain
Version: 1.0
ItalicAngle: 0
UnderlinePosition: 307
UnderlineWidth: 204
Ascent: 4096
Descent: 0
InvalidEm: 0
sfntRevision: 0x00010000
LayerCount: 2
Layer: 0 1 "Back" 1
Layer: 1 1 "Fore" 0
XUID: [1021 178 1911899458 10945]
StyleMap: 0x0040
FSType: 4
OS2Version: 2
OS2_WeightWidthSlopeOnly: 0
OS2_UseTypoMetrics: 0
CreationTime: 1581759182
ModificationTime: 1589916637
PfmFamily: 81
TTFWeight: 400
TTFWidth: 5
LineGap: 0
VLineGap: 0
Panose: 0 0 4 0 0 0 0 0 0 0
OS2TypoAscent: 4096
OS2TypoAOffset: 0
OS2TypoDescent: 0
OS2TypoDOffset: 0
OS2TypoLinegap: 0
OS2WinAscent: 4228
OS2WinAOffset: 0
OS2WinDescent: 0
OS2WinDOffset: 0
HheadAscent: 4228
HheadAOffset: 0
HheadDescent: 0
HheadDOffset: 0
OS2SubXSize: 2048
OS2SubYSize: 2048
OS2SubXOff: 0
OS2SubYOff: 0
OS2SupXSize: 2048
OS2SupYSize: 2048
OS2SupXOff: 0
OS2SupYOff: 2048
OS2StrikeYSize: 204
OS2StrikeYPos: 819
OS2CapHeight: 4096
OS2Vendor: 'FSTR'
OS2CodePages: 00000001.00000000
OS2UnicodeRanges: 80000003.00000000.00000000.00000000
Lookup: 258 0 0 "'kern' Horizontal Kerning in Latin lookup 0" { "'kern' Horizontal Kerning in Latin lookup 0 subtable"  } ['kern' ('DFLT' <'dflt' > 'latn' <'dflt' > ) ]
MarkAttachClasses: 1
DEI: 91125
ShortTable: maxp 16
  1
  0
  55
  90
  9
  0
  0
  2
  0
  0
  0
  0
  0
  0
  0
  0
EndShort
LangName: 1033 "" "" "Regular" "" "" "Version 1.0" "" "" "" "endersmith" "+IBwA-Docking Bay 94+IB0A was built with FontStruct+AAoA-Designer description: <p>Based on the Docking Bay numbers at the Mos Eisley Spaceport</p>+AAoACgAA<p>Contains:<br />+AAoA-- Numerals:&nbsp;0-9<br />+AAoA-- Aurebesh Letters: A-Z,&nbsp;+ANAA<br />+AAoA-- Aurebesh Punctuation: . , ! +- - $ &amp;<br />+AAoA-- Latin Letters: a-b</p>+AAoA" "" "" "" "" "" "" "" "" "Five big quacking zephyrs jolt my wax bed"
Encoding: UnicodeBmp
UnicodeInterp: none
NameList: AGL For New Fonts
DisplaySize: -72

StartChar: .notdef
Encoding: 65536 -1 0
Width: 3282
Flags: W
LayerCount: 2
Fore
SplineSet
3081 50 m 1,0,-1
 1575 2028 l 1,1,-1
 69 50 l 1,2,-1
 3081 50 l 1,0,-1
50 69 m 1,3,-1
 1556 2048 l 1,4,-1
 50 4026 l 1,5,-1
 50 69 l 1,6,-1
 50 69 l 1,3,-1
3100 69 m 1,7,-1
 3100 4026 l 1,8,-1
 1594 2048 l 1,9,-1
 3100 69 l 1,10,-1
 3100 69 l 1,7,-1
1575 2067 m 1,11,-1
 3081 4046 l 1,12,-1
 69 4046 l 1,13,-1
 1575 2067 l 1,14,-1
 1575 2067 l 1,11,-1
0 0 m 1,15,-1
 0 4096 l 1,16,-1
 3150 4096 l 1,17,-1
 3150 0 l 1,18,-1
 0 0 l 1,15,-1
EndSplineSet
EndChar

StartChar: exclam
Encoding: 33 33 4
Width: 1057
Flags: W
LayerCount: 2
Fore
SplineSet
0 1585 m 1,0,-1
 0 1717 l 1,1,-1
 66 1849 l 1,2,-1
 132 1915 l 1,3,-1
 264 1981 l 1,4,-1
 660 1981 l 1,5,-1
 660 1849 l 1,6,-1
 594 1717 l 1,7,-1
 528 1651 l 1,8,-1
 396 1585 l 1,9,-1
 0 1585 l 1,0,-1
0 2246 m 1,10,-1
 0 2378 l 1,11,-1
 66 2510 l 1,12,-1
 132 2576 l 1,13,-1
 264 2642 l 1,14,-1
 660 2642 l 1,15,-1
 660 2510 l 1,16,-1
 594 2378 l 1,17,-1
 528 2312 l 1,18,-1
 396 2246 l 1,19,-1
 0 2246 l 1,10,-1
EndSplineSet
EndChar

StartChar: quotedbl
Encoding: 34 34 5
Width: 1057
Flags: W
LayerCount: 2
Fore
SplineSet
0 3567 m 1,0,-1
 0 4096 l 1,1,2
 54 4096 54 4096 93 4057 c 256,3,4
 132 4018 132 4018 132 3963 c 2,5,-1
 132 3699 l 1,6,7
 77 3699 77 3699 38 3660 c 0,8,9
 0 3622 0 3622 0 3567 c 1,10,-1
 0 3567 l 1,0,-1
0 3435 m 1,11,12
 0 3490 0 3490 38 3528 c 0,13,14
 77 3567 77 3567 132 3567 c 2,15,-1
 396 3567 l 1,16,-1
 396 4096 l 1,17,-1
 660 4096 l 1,18,-1
 660 3435 l 1,19,-1
 0 3435 l 1,11,12
EndSplineSet
EndChar

StartChar: dollar
Encoding: 36 36 6
Width: 2246
Flags: W
LayerCount: 2
Fore
SplineSet
660 1585 m 1,0,-1
 660 2642 l 2,1,2
 660 2697 660 2697 699 2735 c 0,3,4
 737 2774 737 2774 792 2774 c 2,5,-1
 1585 2774 l 1,6,-1
 1585 2510 l 2,7,8
 1585 2455 1585 2455 1546 2417 c 0,9,10
 1508 2378 1508 2378 1453 2378 c 2,11,-1
 1189 2378 l 2,12,13
 1134 2378 1134 2378 1095 2339 c 0,14,15
 1057 2300 1057 2300 1057 2246 c 2,16,-1
 1057 1585 l 1,17,-1
 660 1585 l 1,0,-1
0 3567 m 1,18,-1
 0 4029 l 2,19,20
 0 4057 0 4057 19 4076 c 0,21,22
 38 4096 38 4096 66 4096 c 2,23,-1
 264 4096 l 1,24,-1
 264 3567 l 1,25,-1
 0 3567 l 1,18,-1
1453 2906 m 1,26,-1
 1453 3435 l 2,27,28
 1453 3490 1453 3490 1414 3528 c 0,29,30
 1375 3567 1375 3567 1321 3567 c 2,31,-1
 1189 3567 l 1,32,-1
 1189 4096 l 1,33,-1
 1585 4096 l 1,34,-1
 1717 4029 l 1,35,-1
 1783 3963 l 1,36,-1
 1849 3831 l 1,37,-1
 1849 3171 l 1,38,-1
 1783 3038 l 1,39,-1
 1717 2972 l 1,40,-1
 1585 2906 l 1,41,-1
 1453 2906 l 1,26,-1
396 3038 m 1,42,-1
 396 4228 l 1,43,-1
 660 4228 l 1,44,-1
 660 3038 l 1,45,-1
 396 3038 l 1,42,-1
792 3038 m 1,46,-1
 792 4228 l 1,47,-1
 1057 4228 l 1,48,-1
 1057 3038 l 1,49,-1
 792 3038 l 1,46,-1
EndSplineSet
EndChar

StartChar: ampersand
Encoding: 38 38 7
Width: 3567
Flags: W
LayerCount: 2
Fore
SplineSet
2642 0 m 2,0,1
 2587 0 2587 0 2549 38 c 0,2,3
 2510 77 2510 77 2510 132 c 2,4,-1
 2510 924 l 2,5,6
 2510 979 2510 979 2549 1018 c 0,7,8
 2587 1057 2587 1057 2642 1057 c 2,9,-1
 2708 1057 l 2,10,11
 2735 1057 2735 1057 2755 1076 c 0,12,13
 2774 1095 2774 1095 2774 1123 c 2,14,-1
 2774 1453 l 1,15,-1
 2906 1453 l 1,16,-1
 2906 132 l 2,17,18
 2906 77 2906 77 2868 38 c 0,19,20
 2829 0 2829 0 2774 0 c 2,21,-1
 2642 0 l 2,0,1
3038 528 m 1,22,-1
 3038 1453 l 1,23,-1
 3171 1453 l 1,24,-1
 3171 660 l 2,25,26
 3171 605 3171 605 3132 567 c 0,27,28
 3093 528 3093 528 3038 528 c 1,29,-1
 3038 528 l 1,22,-1
1189 396 m 1,30,-1
 1189 3435 l 2,31,32
 1189 3490 1189 3490 1227 3528 c 0,33,34
 1266 3567 1266 3567 1321 3567 c 2,35,-1
 1585 3567 l 1,36,-1
 1585 660 l 1,37,-1
 1519 528 l 1,38,-1
 1453 462 l 1,39,-1
 1321 396 l 1,40,-1
 1189 396 l 1,30,-1
2246 0 m 1,41,-1
 2114 66 l 1,42,-1
 2048 132 l 1,43,-1
 1981 264 l 1,44,-1
 1981 3567 l 1,45,-1
 2378 3567 l 1,46,-1
 2378 132 l 2,47,48
 2378 77 2378 77 2417 38 c 0,49,50
 2455 0 2455 0 2510 0 c 1,51,-1
 2246 0 l 1,41,-1
264 0 m 1,52,-1
 132 66 l 1,53,-1
 66 132 l 1,54,-1
 0 264 l 1,55,-1
 0 4096 l 1,56,-1
 528 4096 l 1,57,-1
 528 528 l 2,58,59
 528 473 528 473 567 435 c 0,60,61
 605 396 605 396 660 396 c 2,62,-1
 1057 396 l 1,63,-1
 1057 264 l 1,64,-1
 990 132 l 1,65,-1
 924 66 l 1,66,-1
 792 0 l 1,67,-1
 264 0 l 1,52,-1
1189 3567 m 1,68,-1
 1189 3963 l 2,69,70
 1189 4018 1189 4018 1227 4057 c 0,71,72
 1266 4096 1266 4096 1321 4096 c 2,73,-1
 2774 4096 l 1,74,-1
 2774 3699 l 1,75,-1
 1321 3699 l 2,76,77
 1266 3699 1266 3699 1227 3660 c 0,78,79
 1189 3622 1189 3622 1189 3567 c 1,80,-1
 1189 3567 l 1,68,-1
EndSplineSet
EndChar

StartChar: plus
Encoding: 43 43 8
Width: 1585
Flags: W
LayerCount: 2
Fore
SplineSet
396 1189 m 1,0,-1
 396 1453 l 1,1,-1
 660 1453 l 2,2,3
 715 1453 715 1453 754 1492 c 0,4,5
 792 1530 792 1530 792 1585 c 1,6,-1
 792 1189 l 1,7,-1
 396 1189 l 1,0,-1
924 1585 m 1,8,-1
 924 1981 l 1,9,-1
 1189 1981 l 1,10,-1
 1189 1585 l 1,11,-1
 924 1585 l 1,8,-1
0 1585 m 1,12,-1
 0 1981 l 1,13,-1
 396 1981 l 1,14,-1
 396 2378 l 1,15,-1
 792 2378 l 1,16,-1
 792 1717 l 2,17,18
 792 1662 792 1662 754 1624 c 0,19,20
 715 1585 715 1585 660 1585 c 2,21,-1
 0 1585 l 1,12,-1
EndSplineSet
EndChar

StartChar: comma
Encoding: 44 44 9
Width: 660
Flags: W
LayerCount: 2
Fore
SplineSet
0 0 m 1,0,-1
 0 660 l 1,1,-1
 264 660 l 1,2,-1
 264 0 l 1,3,-1
 0 0 l 1,0,-1
EndSplineSet
EndChar

StartChar: hyphen
Encoding: 45 45 10
Width: 1849
Flags: W
LayerCount: 2
Fore
SplineSet
0 3171 m 1,0,-1
 0 3567 l 1,1,-1
 1453 3567 l 1,2,-1
 1453 3171 l 1,3,-1
 0 3171 l 1,0,-1
EndSplineSet
EndChar

StartChar: period
Encoding: 46 46 11
Width: 1057
Flags: W
LayerCount: 2
Fore
SplineSet
0 0 m 1,0,-1
 0 660 l 1,1,-1
 264 660 l 1,2,-1
 264 0 l 1,3,-1
 0 0 l 1,0,-1
396 0 m 1,4,-1
 396 660 l 1,5,-1
 660 660 l 1,6,-1
 660 0 l 1,7,-1
 396 0 l 1,4,-1
EndSplineSet
EndChar

StartChar: zero
Encoding: 48 48 12
Width: 2246
Flags: W
LayerCount: 2
Fore
SplineSet
660 1585 m 1,0,-1
 660 2114 l 2,1,2
 660 2168 660 2168 699 2207 c 256,3,4
 738 2246 738 2246 792 2246 c 2,5,-1
 1057 2246 l 1,6,-1
 1057 1717 l 2,7,8
 1057 1662 1057 1662 1018 1624 c 0,9,10
 979 1585 979 1585 924 1585 c 2,11,-1
 660 1585 l 1,0,-1
264 0 m 1,12,-1
 132 66 l 1,13,-1
 66 132 l 1,14,-1
 0 264 l 1,15,-1
 0 3831 l 1,16,-1
 66 3963 l 1,17,-1
 132 4029 l 1,18,-1
 264 4096 l 1,19,-1
 528 4096 l 1,20,-1
 528 528 l 2,21,22
 528 473 528 473 567 435 c 0,23,24
 605 396 605 396 660 396 c 2,25,-1
 1849 396 l 1,26,-1
 1849 0 l 1,27,-1
 264 0 l 1,12,-1
660 3567 m 1,28,-1
 660 4096 l 1,29,-1
 1057 4096 l 1,30,-1
 1057 3567 l 1,31,-1
 660 3567 l 1,28,-1
1189 528 m 1,32,-1
 1189 4096 l 1,33,-1
 1585 4096 l 1,34,-1
 1585 660 l 2,35,36
 1585 605 1585 605 1546 567 c 0,37,38
 1508 528 1508 528 1453 528 c 2,39,-1
 1189 528 l 1,32,-1
1717 528 m 1,40,-1
 1717 4096 l 1,41,-1
 1849 4096 l 1,42,-1
 1849 660 l 2,43,44
 1849 605 1849 605 1811 567 c 0,45,46
 1772 528 1772 528 1717 528 c 1,47,-1
 1717 528 l 1,40,-1
EndSplineSet
EndChar

StartChar: one
Encoding: 49 49 13
Width: 2510
Flags: W
LayerCount: 2
Fore
SplineSet
0 0 m 1,0,-1
 0 396 l 1,1,-1
 2114 396 l 1,2,-1
 2114 264 l 1,3,4
 2059 264 2059 264 2020 225 c 256,5,6
 1981 186 1981 186 1981 132 c 2,7,-1
 1981 0 l 1,8,-1
 0 0 l 1,0,-1
1057 528 m 2,9,10
 1002 528 1002 528 963 567 c 0,11,12
 924 605 924 605 924 660 c 2,13,-1
 924 924 l 2,14,15
 924 979 924 979 963 1018 c 256,16,17
 1002 1057 1002 1057 1057 1057 c 2,18,-1
 1189 1057 l 1,19,-1
 1189 528 l 1,20,-1
 1057 528 l 2,9,10
1057 1189 m 2,21,22
 1002 1189 1002 1189 963 1227 c 0,23,24
 924 1266 924 1266 924 1321 c 2,25,-1
 924 3567 l 1,26,-1
 1189 3567 l 1,27,-1
 1189 1189 l 1,28,-1
 1057 1189 l 2,21,22
132 3303 m 2,29,30
 77 3303 77 3303 38 3341 c 0,31,32
 0 3380 0 3380 0 3435 c 2,33,-1
 0 4096 l 1,34,-1
 1189 4096 l 1,35,-1
 1189 3699 l 1,36,-1
 660 3699 l 2,37,38
 605 3699 605 3699 567 3660 c 0,39,40
 528 3622 528 3622 528 3567 c 2,41,-1
 528 3303 l 1,42,-1
 132 3303 l 2,29,30
1321 528 m 1,43,-1
 1321 4228 l 1,44,-1
 1453 4228 l 1,45,-1
 1453 660 l 2,46,47
 1453 605 1453 605 1414 567 c 0,48,49
 1375 528 1375 528 1321 528 c 1,50,-1
 1321 528 l 1,43,-1
EndSplineSet
EndChar

StartChar: two
Encoding: 50 50 14
Width: 2378
Flags: W
LayerCount: 2
Fore
SplineSet
1453 0 m 1,0,-1
 1453 792 l 1,1,-1
 1519 924 l 1,2,-1
 1585 990 l 1,3,-1
 1717 1057 l 1,4,-1
 1981 1057 l 1,5,-1
 1981 264 l 1,6,-1
 1915 132 l 1,7,-1
 1849 66 l 1,8,-1
 1717 0 l 1,9,-1
 1453 0 l 1,0,-1
264 0 m 1,10,-1
 132 66 l 1,11,-1
 66 132 l 1,12,-1
 0 264 l 1,13,-1
 0 1321 l 1,14,15
 0 1266 0 1266 38 1227 c 0,16,17
 77 1189 77 1189 132 1189 c 2,18,-1
 396 1189 l 1,19,-1
 396 528 l 2,20,21
 396 473 396 473 435 435 c 0,22,23
 473 396 473 396 528 396 c 2,24,-1
 1321 396 l 1,25,-1
 1321 0 l 1,26,-1
 264 0 l 1,10,-1
132 1321 m 2,27,28
 77 1321 77 1321 38 1360 c 0,29,30
 0 1398 0 1398 0 1453 c 2,31,-1
 0 1585 l 1,32,33
 0 1530 0 1530 38 1492 c 0,34,35
 77 1453 77 1453 132 1453 c 2,36,-1
 1453 1453 l 1,37,38
 1453 1398 1453 1398 1414 1360 c 0,39,40
 1375 1321 1375 1321 1321 1321 c 2,41,-1
 132 1321 l 2,27,28
132 3303 m 2,42,43
 77 3303 77 3303 38 3341 c 0,44,45
 0 3380 0 3380 0 3435 c 2,46,-1
 0 4096 l 1,47,-1
 1057 4096 l 1,48,-1
 1057 3699 l 1,49,-1
 660 3699 l 2,50,51
 605 3699 605 3699 567 3660 c 0,52,53
 528 3622 528 3622 528 3567 c 2,54,-1
 528 3303 l 1,55,-1
 132 3303 l 2,42,43
264 1585 m 1,56,-1
 132 1651 l 1,57,-1
 66 1717 l 1,58,-1
 0 1849 l 1,59,-1
 0 2114 l 1,60,-1
 1189 2114 l 1,61,-1
 1189 4096 l 1,62,-1
 1717 4096 l 1,63,-1
 1717 1849 l 1,64,-1
 1651 1717 l 1,65,-1
 1585 1651 l 1,66,-1
 1453 1585 l 1,67,-1
 264 1585 l 1,56,-1
1849 1849 m 1,68,-1
 1849 4228 l 1,69,-1
 1981 4228 l 1,70,-1
 1981 1981 l 2,71,72
 1981 1927 1981 1927 1943 1888 c 0,73,74
 1904 1849 1904 1849 1849 1849 c 1,75,-1
 1849 1849 l 1,68,-1
EndSplineSet
EndChar

StartChar: three
Encoding: 51 51 15
Width: 2378
Flags: W
LayerCount: 2
Fore
SplineSet
264 0 m 1,0,-1
 132 66 l 1,1,-1
 66 132 l 1,2,-1
 0 264 l 1,3,-1
 0 1057 l 1,4,-1
 264 1057 l 1,5,-1
 396 990 l 1,6,-1
 462 924 l 1,7,-1
 528 792 l 1,8,-1
 528 0 l 1,9,-1
 264 0 l 1,0,-1
660 0 m 1,10,-1
 660 396 l 1,11,-1
 1321 396 l 2,12,13
 1375 396 1375 396 1414 435 c 0,14,15
 1453 473 1453 473 1453 528 c 2,16,-1
 1453 1453 l 1,17,-1
 1585 1453 l 2,18,19
 1640 1453 1640 1453 1678 1492 c 0,20,21
 1717 1530 1717 1530 1717 1585 c 1,22,-1
 1717 132 l 2,23,24
 1717 77 1717 77 1678 38 c 0,25,26
 1640 0 1640 0 1585 0 c 2,27,-1
 660 0 l 1,10,-1
0 1453 m 1,28,-1
 0 2246 l 1,29,-1
 132 2246 l 1,30,-1
 132 1453 l 1,31,-1
 0 1453 l 1,28,-1
132 3303 m 2,32,33
 77 3303 77 3303 38 3341 c 0,34,35
 0 3380 0 3380 0 3435 c 2,36,-1
 0 3567 l 1,37,-1
 132 3567 l 1,38,-1
 132 3699 l 1,39,-1
 0 3699 l 1,40,-1
 0 4096 l 1,41,-1
 1057 4096 l 1,42,-1
 1057 3699 l 1,43,-1
 660 3699 l 2,44,45
 605 3699 605 3699 567 3660 c 0,46,47
 528 3622 528 3622 528 3567 c 2,48,-1
 528 3303 l 1,49,-1
 132 3303 l 2,32,33
264 1585 m 1,50,-1
 264 2114 l 1,51,-1
 1189 2114 l 1,52,-1
 1189 4096 l 1,53,-1
 1717 4096 l 1,54,-1
 1717 1849 l 1,55,-1
 1651 1717 l 1,56,-1
 1585 1651 l 1,57,-1
 1453 1585 l 1,58,-1
 264 1585 l 1,50,-1
1849 1717 m 1,59,-1
 1849 4228 l 1,60,-1
 1981 4228 l 1,61,-1
 1981 1849 l 2,62,63
 1981 1794 1981 1794 1943 1756 c 0,64,65
 1904 1717 1904 1717 1849 1717 c 1,66,-1
 1849 1717 l 1,59,-1
EndSplineSet
EndChar

StartChar: four
Encoding: 52 52 16
Width: 2510
Flags: W
LayerCount: 2
Fore
SplineSet
1453 0 m 1,0,-1
 1453 792 l 1,1,-1
 1717 792 l 1,2,-1
 1717 0 l 1,3,-1
 1453 0 l 1,0,-1
132 1189 m 1,4,5
 77 1189 77 1189 38 1227 c 0,6,7
 0 1266 0 1266 0 1321 c 2,8,-1
 0 4096 l 1,9,-1
 132 4096 l 1,10,-1
 132 1189 l 1,11,-1
 132 1189 l 1,4,5
528 924 m 1,12,-1
 396 990 l 1,13,-1
 330 1057 l 1,14,-1
 264 1189 l 1,15,-1
 264 4096 l 1,16,-1
 792 4096 l 1,17,-1
 792 1717 l 2,18,19
 792 1662 792 1662 831 1624 c 0,20,21
 870 1585 870 1585 924 1585 c 2,22,-1
 2114 1585 l 1,23,-1
 2114 1453 l 1,24,25
 2059 1453 2059 1453 2020 1414 c 256,26,27
 1981 1375 1981 1375 1981 1321 c 2,28,-1
 1981 924 l 1,29,-1
 528 924 l 1,12,-1
1453 1717 m 1,30,-1
 1453 4096 l 1,31,-1
 1981 4096 l 1,32,-1
 1981 3567 l 1,33,-1
 1849 3567 l 2,34,35
 1795 3567 1795 3567 1756 3528 c 0,36,37
 1717 3490 1717 3490 1717 3435 c 2,38,-1
 1717 1717 l 1,39,-1
 1453 1717 l 1,30,-1
EndSplineSet
EndChar

StartChar: five
Encoding: 53 53 17
Width: 2378
Flags: W
LayerCount: 2
Fore
SplineSet
264 0 m 1,0,-1
 132 66 l 1,1,-1
 66 132 l 1,2,-1
 0 264 l 1,3,-1
 0 924 l 1,4,5
 0 870 0 870 38 831 c 0,6,7
 77 792 77 792 132 792 c 2,8,-1
 528 792 l 1,9,-1
 528 528 l 2,10,11
 528 473 528 473 567 435 c 0,12,13
 605 396 605 396 660 396 c 2,14,-1
 1981 396 l 1,15,-1
 1981 0 l 1,16,-1
 264 0 l 1,0,-1
1585 528 m 1,17,-1
 1585 1321 l 1,18,-1
 132 1321 l 2,19,20
 77 1321 77 1321 38 1360 c 0,21,22
 0 1398 0 1398 0 1453 c 2,23,-1
 0 1585 l 1,24,25
 0 1530 0 1530 38 1492 c 0,26,27
 77 1453 77 1453 132 1453 c 2,28,-1
 1981 1453 l 1,29,-1
 1981 1321 l 1,30,-1
 1915 1321 l 2,31,32
 1888 1321 1888 1321 1869 1301 c 0,33,34
 1849 1282 1849 1282 1849 1255 c 2,35,-1
 1849 528 l 1,36,-1
 1585 528 l 1,17,-1
264 1585 m 1,37,-1
 132 1651 l 1,38,-1
 66 1717 l 1,39,-1
 0 1849 l 1,40,-1
 0 3831 l 1,41,-1
 66 3963 l 1,42,-1
 132 4029 l 1,43,-1
 264 4096 l 1,44,-1
 528 4096 l 1,45,-1
 528 2246 l 2,46,47
 528 2191 528 2191 567 2152 c 0,48,49
 605 2114 605 2114 660 2114 c 2,50,-1
 1849 2114 l 1,51,-1
 1849 1585 l 1,52,-1
 264 1585 l 1,37,-1
660 3699 m 1,53,-1
 660 4096 l 1,54,-1
 1189 4096 l 1,55,-1
 1189 3699 l 1,56,-1
 660 3699 l 1,53,-1
1717 3435 m 1,57,-1
 1717 3567 l 2,58,59
 1717 3622 1717 3622 1678 3660 c 0,60,61
 1640 3699 1640 3699 1585 3699 c 2,62,-1
 1321 3699 l 1,63,-1
 1321 4096 l 1,64,-1
 1849 4096 l 1,65,-1
 1849 3435 l 1,66,-1
 1717 3435 l 1,57,-1
EndSplineSet
EndChar

StartChar: six
Encoding: 54 54 18
Width: 2378
Flags: W
LayerCount: 2
Fore
SplineSet
792 528 m 2,0,1
 737 528 737 528 699 567 c 0,2,3
 660 605 660 605 660 660 c 2,4,-1
 660 924 l 1,5,-1
 1189 924 l 1,6,-1
 1189 528 l 1,7,-1
 792 528 l 2,0,1
264 0 m 1,8,-1
 132 66 l 1,9,-1
 66 132 l 1,10,-1
 0 264 l 1,11,-1
 0 1717 l 2,12,13
 0 1772 0 1772 38 1811 c 0,14,15
 77 1849 77 1849 132 1849 c 2,16,-1
 1189 1849 l 1,17,-1
 1189 1717 l 1,18,-1
 528 1717 l 1,19,-1
 528 528 l 2,20,21
 528 473 528 473 567 435 c 0,22,23
 605 396 605 396 660 396 c 2,24,-1
 1981 396 l 1,25,-1
 1981 0 l 1,26,-1
 264 0 l 1,8,-1
1849 528 m 1,27,-1
 1849 1981 l 1,28,29
 1904 1981 1904 1981 1943 1943 c 0,30,31
 1981 1904 1981 1904 1981 1849 c 2,32,-1
 1981 660 l 2,33,34
 1981 605 1981 605 1943 567 c 0,35,36
 1904 528 1904 528 1849 528 c 1,37,-1
 1849 528 l 1,27,-1
1321 528 m 1,38,-1
 1321 1981 l 1,39,-1
 132 1981 l 2,40,41
 77 1981 77 1981 38 1943 c 0,42,43
 0 1904 0 1904 0 1849 c 1,44,-1
 0 1981 l 2,45,46
 0 2036 0 2036 38 2075 c 0,47,48
 77 2114 77 2114 132 2114 c 2,49,-1
 1585 2114 l 2,50,51
 1640 2114 1640 2114 1678 2075 c 0,52,53
 1717 2036 1717 2036 1717 1981 c 2,54,-1
 1717 660 l 2,55,56
 1717 605 1717 605 1678 567 c 0,57,58
 1640 528 1640 528 1585 528 c 2,59,-1
 1321 528 l 1,38,-1
264 2246 m 1,60,-1
 132 2312 l 1,61,-1
 66 2378 l 1,62,-1
 0 2510 l 1,63,-1
 0 3831 l 1,64,-1
 66 3963 l 1,65,-1
 132 4029 l 1,66,-1
 264 4096 l 1,67,-1
 528 4096 l 1,68,-1
 528 2246 l 1,69,-1
 264 2246 l 1,60,-1
660 3699 m 1,70,-1
 660 4096 l 1,71,-1
 1189 4096 l 1,72,-1
 1189 3699 l 1,73,-1
 660 3699 l 1,70,-1
1717 3435 m 1,74,-1
 1717 3567 l 2,75,76
 1717 3622 1717 3622 1678 3660 c 0,77,78
 1640 3699 1640 3699 1585 3699 c 2,79,-1
 1321 3699 l 1,80,-1
 1321 4096 l 1,81,-1
 1849 4096 l 1,82,-1
 1849 3435 l 1,83,-1
 1717 3435 l 1,74,-1
EndSplineSet
EndChar

StartChar: seven
Encoding: 55 55 19
Width: 2642
Flags: W
LayerCount: 2
Fore
SplineSet
1453 0 m 1,0,-1
 1453 924 l 1,1,-1
 1717 924 l 1,2,-1
 1717 0 l 1,3,-1
 1453 0 l 1,0,-1
528 1057 m 1,4,-1
 528 1453 l 2,5,6
 528 1508 528 1508 567 1546 c 0,7,8
 605 1585 605 1585 660 1585 c 2,9,-1
 2114 1585 l 1,10,-1
 2114 1453 l 1,11,12
 2059 1453 2059 1453 2020 1414 c 256,13,14
 1981 1375 1981 1375 1981 1321 c 2,15,-1
 1981 1057 l 1,16,-1
 528 1057 l 1,4,-1
1849 1717 m 1,17,-1
 1849 3303 l 2,18,19
 1849 3358 1849 3358 1888 3396 c 0,20,21
 1927 3435 1927 3435 1981 3435 c 1,22,-1
 1981 1717 l 1,23,-1
 1849 1717 l 1,17,-1
132 3303 m 2,24,25
 77 3303 77 3303 38 3341 c 0,26,27
 0 3380 0 3380 0 3435 c 2,28,-1
 0 3831 l 1,29,-1
 132 3831 l 1,30,-1
 132 3963 l 1,31,-1
 0 3963 l 1,32,-1
 0 4096 l 1,33,-1
 792 4096 l 1,34,-1
 792 3699 l 1,35,-1
 660 3699 l 2,36,37
 605 3699 605 3699 567 3660 c 0,38,39
 528 3622 528 3622 528 3567 c 2,40,-1
 528 3303 l 1,41,-1
 132 3303 l 2,24,25
924 3699 m 1,42,-1
 924 4096 l 1,43,-1
 1321 4096 l 1,44,-1
 1321 3699 l 1,45,-1
 924 3699 l 1,42,-1
1453 1717 m 1,46,-1
 1453 4096 l 1,47,-1
 1981 4096 l 1,48,-1
 1981 3567 l 1,49,-1
 1849 3567 l 2,50,51
 1795 3567 1795 3567 1756 3528 c 0,52,53
 1717 3490 1717 3490 1717 3435 c 2,54,-1
 1717 1717 l 1,55,-1
 1453 1717 l 1,46,-1
2114 3435 m 1,56,-1
 2114 4228 l 1,57,-1
 2246 4228 l 1,58,-1
 2246 3567 l 2,59,60
 2246 3512 2246 3512 2207 3474 c 0,61,62
 2168 3435 2168 3435 2114 3435 c 1,63,-1
 2114 3435 l 1,56,-1
EndSplineSet
EndChar

StartChar: eight
Encoding: 56 56 20
Width: 2378
Flags: W
LayerCount: 2
Fore
SplineSet
660 528 m 1,0,-1
 660 924 l 1,1,-1
 1189 924 l 1,2,-1
 1189 528 l 1,3,-1
 660 528 l 1,0,-1
264 0 m 1,4,-1
 132 66 l 1,5,-1
 66 132 l 1,6,-1
 0 264 l 1,7,-1
 0 1717 l 2,8,9
 0 1772 0 1772 38 1811 c 0,10,11
 77 1849 77 1849 132 1849 c 2,12,-1
 1189 1849 l 1,13,-1
 1189 1717 l 1,14,-1
 528 1717 l 1,15,-1
 528 396 l 1,16,-1
 1981 396 l 1,17,-1
 1981 0 l 1,18,-1
 264 0 l 1,4,-1
1849 528 m 1,19,-1
 1849 1981 l 1,20,21
 1904 1981 1904 1981 1943 1943 c 0,22,23
 1981 1904 1981 1904 1981 1849 c 2,24,-1
 1981 660 l 2,25,26
 1981 605 1981 605 1943 567 c 0,27,28
 1904 528 1904 528 1849 528 c 1,29,-1
 1849 528 l 1,19,-1
1321 528 m 1,30,-1
 1321 1981 l 1,31,-1
 132 1981 l 2,32,33
 77 1981 77 1981 38 1943 c 0,34,35
 0 1904 0 1904 0 1849 c 1,36,-1
 0 1981 l 2,37,38
 0 2036 0 2036 38 2075 c 0,39,40
 77 2114 77 2114 132 2114 c 2,41,-1
 1585 2114 l 2,42,43
 1640 2114 1640 2114 1678 2075 c 0,44,45
 1717 2036 1717 2036 1717 1981 c 2,46,-1
 1717 660 l 2,47,48
 1717 605 1717 605 1678 567 c 0,49,50
 1640 528 1640 528 1585 528 c 2,51,-1
 1321 528 l 1,30,-1
264 2246 m 1,52,-1
 132 2312 l 1,53,-1
 66 2378 l 1,54,-1
 0 2510 l 1,55,-1
 0 3831 l 1,56,-1
 66 3963 l 1,57,-1
 132 4029 l 1,58,-1
 264 4096 l 1,59,-1
 528 4096 l 1,60,-1
 528 2246 l 1,61,-1
 264 2246 l 1,52,-1
660 3699 m 1,62,-1
 660 4096 l 1,63,-1
 1189 4096 l 1,64,-1
 1189 3699 l 1,65,-1
 660 3699 l 1,62,-1
1453 2246 m 1,66,-1
 1453 3567 l 2,67,68
 1453 3622 1453 3622 1414 3660 c 0,69,70
 1375 3699 1375 3699 1321 3699 c 1,71,-1
 1321 4096 l 1,72,-1
 1585 4096 l 1,73,-1
 1717 4029 l 1,74,-1
 1783 3963 l 1,75,-1
 1849 3831 l 1,76,-1
 1849 2510 l 1,77,-1
 1783 2378 l 1,78,-1
 1717 2312 l 1,79,-1
 1585 2246 l 1,80,-1
 1453 2246 l 1,66,-1
EndSplineSet
EndChar

StartChar: nine
Encoding: 57 57 21
Width: 2378
Flags: W
LayerCount: 2
Fore
SplineSet
264 0 m 1,0,-1
 132 66 l 1,1,-1
 66 132 l 1,2,-1
 0 264 l 1,3,-1
 0 1321 l 1,4,5
 0 1266 0 1266 38 1227 c 0,6,7
 77 1189 77 1189 132 1189 c 2,8,-1
 528 1189 l 1,9,-1
 528 528 l 2,10,11
 528 473 528 473 567 435 c 0,12,13
 605 396 605 396 660 396 c 2,14,-1
 1981 396 l 1,15,-1
 1981 0 l 1,16,-1
 264 0 l 1,0,-1
1585 528 m 1,17,-1
 1585 1321 l 1,18,-1
 132 1321 l 2,19,20
 77 1321 77 1321 38 1360 c 0,21,22
 0 1398 0 1398 0 1453 c 2,23,-1
 0 1585 l 1,24,25
 0 1530 0 1530 38 1492 c 0,26,27
 77 1453 77 1453 132 1453 c 2,28,-1
 1981 1453 l 1,29,-1
 1981 1321 l 1,30,-1
 1915 1321 l 2,31,32
 1888 1321 1888 1321 1869 1301 c 0,33,34
 1849 1282 1849 1282 1849 1255 c 2,35,-1
 1849 528 l 1,36,-1
 1585 528 l 1,17,-1
264 1585 m 1,37,-1
 132 1651 l 1,38,-1
 66 1717 l 1,39,-1
 0 1849 l 1,40,-1
 0 3831 l 1,41,-1
 66 3963 l 1,42,-1
 132 4029 l 1,43,-1
 264 4096 l 1,44,-1
 528 4096 l 1,45,-1
 528 2246 l 2,46,47
 528 2191 528 2191 567 2152 c 0,48,49
 605 2114 605 2114 660 2114 c 2,50,-1
 1849 2114 l 1,51,-1
 1849 1585 l 1,52,-1
 264 1585 l 1,37,-1
660 3699 m 1,53,-1
 660 4096 l 1,54,-1
 1057 4096 l 1,55,-1
 1057 3699 l 1,56,-1
 660 3699 l 1,53,-1
660 2378 m 1,57,-1
 660 2906 l 1,58,-1
 1189 2906 l 1,59,-1
 1189 4096 l 1,60,-1
 1585 4096 l 1,61,-1
 1585 2510 l 2,62,63
 1585 2455 1585 2455 1546 2417 c 0,64,65
 1508 2378 1508 2378 1453 2378 c 2,66,-1
 660 2378 l 1,57,-1
1717 2510 m 1,67,-1
 1717 4096 l 1,68,-1
 1849 4096 l 1,69,-1
 1849 2642 l 2,70,71
 1849 2587 1849 2587 1811 2549 c 0,72,73
 1772 2510 1772 2510 1717 2510 c 1,74,-1
 1717 2510 l 1,67,-1
EndSplineSet
EndChar

StartChar: A
Encoding: 65 65 22
Width: 2246
Flags: W
LayerCount: 2
Fore
SplineSet
0 0 m 1,0,-1
 0 1321 l 2,1,2
 0 1376 0 1376 38 1414 c 0,3,4
 77 1453 77 1453 132 1453 c 2,5,-1
 528 1453 l 1,6,-1
 528 0 l 1,7,-1
 0 0 l 1,0,-1
1453 0 m 1,8,-1
 1453 1453 l 2,9,10
 1453 1508 1453 1508 1414 1546 c 0,11,12
 1375 1585 1375 1585 1321 1585 c 2,13,-1
 132 1585 l 2,14,15
 77 1585 77 1585 38 1546 c 0,16,17
 0 1508 0 1508 0 1453 c 1,18,-1
 0 1585 l 2,19,20
 0 1640 0 1640 38 1678 c 0,21,22
 77 1717 77 1717 132 1717 c 2,23,-1
 1585 1717 l 1,24,-1
 1717 1651 l 1,25,-1
 1783 1585 l 1,26,-1
 1849 1453 l 1,27,-1
 1849 0 l 1,28,-1
 1453 0 l 1,8,-1
132 1981 m 2,29,30
 77 1981 77 1981 38 2020 c 0,31,32
 0 2059 0 2059 0 2114 c 2,33,-1
 0 3963 l 2,34,35
 0 4018 0 4018 38 4057 c 0,36,37
 77 4096 77 4096 132 4096 c 2,38,-1
 528 4096 l 1,39,-1
 528 1981 l 1,40,-1
 132 1981 l 2,29,30
660 1981 m 1,41,-1
 660 2378 l 1,42,-1
 1189 2378 l 2,43,44
 1243 2378 1243 2378 1282 2417 c 0,45,46
 1321 2455 1321 2455 1321 2510 c 2,47,-1
 1321 4096 l 1,48,-1
 1585 4096 l 1,49,-1
 1585 2246 l 1,50,-1
 1519 2114 l 1,51,-1
 1453 2048 l 1,52,-1
 1321 1981 l 1,53,-1
 660 1981 l 1,41,-1
1717 2114 m 1,54,-1
 1717 4096 l 1,55,-1
 1849 4096 l 1,56,-1
 1849 2246 l 2,57,58
 1849 2191 1849 2191 1811 2152 c 0,59,60
 1772 2114 1772 2114 1717 2114 c 1,61,-1
 1717 2114 l 1,54,-1
EndSplineSet
EndChar

StartChar: B
Encoding: 66 66 23
Width: 2510
Flags: W
LayerCount: 2
Fore
SplineSet
660 0 m 1,0,-1
 660 396 l 1,1,-1
 1189 396 l 1,2,-1
 1189 0 l 1,3,-1
 660 0 l 1,0,-1
264 0 m 1,4,-1
 132 66 l 1,5,-1
 66 132 l 1,6,-1
 0 264 l 1,7,-1
 0 1453 l 1,8,-1
 264 1453 l 1,9,-1
 396 1387 l 1,10,-1
 462 1321 l 1,11,-1
 528 1189 l 1,12,-1
 528 0 l 1,13,-1
 264 0 l 1,4,-1
1321 0 m 1,14,-1
 1321 396 l 1,15,16
 1375 396 1375 396 1414 435 c 0,17,18
 1453 473 1453 473 1453 528 c 2,19,-1
 1453 1189 l 1,20,-1
 1519 1321 l 1,21,-1
 1585 1387 l 1,22,-1
 1717 1453 l 1,23,-1
 1849 1453 l 1,24,-1
 1849 264 l 1,25,-1
 1783 132 l 1,26,-1
 1717 66 l 1,27,-1
 1585 0 l 1,28,-1
 1321 0 l 1,14,-1
1981 264 m 1,29,-1
 1981 1453 l 1,30,-1
 2114 1453 l 1,31,-1
 2114 396 l 2,32,33
 2114 341 2114 341 2075 302 c 0,34,35
 2036 264 2036 264 1981 264 c 1,36,-1
 1981 264 l 1,29,-1
660 1585 m 1,37,-1
 660 1981 l 2,38,39
 660 2036 660 2036 699 2075 c 256,40,41
 738 2114 738 2114 792 2114 c 2,42,-1
 1321 2114 l 1,43,-1
 1321 1717 l 2,44,45
 1321 1662 1321 1662 1282 1624 c 0,46,47
 1243 1585 1243 1585 1189 1585 c 2,48,-1
 660 1585 l 1,37,-1
1981 2246 m 1,49,-1
 1981 3831 l 1,50,51
 2036 3831 2036 3831 2075 3793 c 0,52,53
 2114 3754 2114 3754 2114 3699 c 2,54,-1
 2114 2246 l 1,55,-1
 1981 2246 l 1,49,-1
0 2246 m 1,56,-1
 0 3831 l 1,57,-1
 66 3963 l 1,58,-1
 132 4029 l 1,59,-1
 264 4096 l 1,60,-1
 528 4096 l 1,61,-1
 528 2510 l 1,62,-1
 462 2378 l 1,63,-1
 396 2312 l 1,64,-1
 264 2246 l 1,65,-1
 0 2246 l 1,56,-1
660 3699 m 1,66,-1
 660 4096 l 1,67,-1
 1189 4096 l 1,68,-1
 1189 3699 l 1,69,-1
 660 3699 l 1,66,-1
1717 2246 m 1,70,-1
 1585 2312 l 1,71,-1
 1519 2378 l 1,72,-1
 1453 2510 l 1,73,-1
 1453 3567 l 2,74,75
 1453 3622 1453 3622 1414 3660 c 0,76,77
 1375 3699 1375 3699 1321 3699 c 1,78,-1
 1321 4096 l 1,79,-1
 1585 4096 l 1,80,-1
 1717 4029 l 1,81,-1
 1783 3963 l 1,82,-1
 1849 3831 l 1,83,-1
 1849 2246 l 1,84,-1
 1717 2246 l 1,70,-1
EndSplineSet
EndChar

StartChar: C
Encoding: 67 67 24
Width: 2510
Flags: W
LayerCount: 2
Fore
SplineSet
1981 0 m 1,0,-1
 1981 2246 l 1,1,2
 2036 2246 2036 2246 2075 2207 c 256,3,4
 2114 2168 2114 2168 2114 2114 c 2,5,-1
 2114 0 l 1,6,-1
 1981 0 l 1,0,-1
924 1585 m 2,7,8
 870 1585 870 1585 831 1624 c 0,9,10
 792 1662 792 1662 792 1717 c 2,11,-1
 792 2510 l 1,12,-1
 1057 2510 l 2,13,14
 1111 2510 1111 2510 1150 2471 c 0,15,16
 1189 2433 1189 2433 1189 2378 c 2,17,-1
 1189 1585 l 1,18,-1
 924 1585 l 2,7,8
1453 0 m 1,19,-1
 1453 2510 l 1,20,-1
 1585 2510 l 1,21,-1
 1717 2444 l 1,22,-1
 1783 2378 l 1,23,-1
 1849 2246 l 1,24,-1
 1849 0 l 1,25,-1
 1453 0 l 1,19,-1
264 1585 m 1,26,-1
 132 1651 l 1,27,-1
 66 1717 l 1,28,-1
 0 1849 l 1,29,-1
 0 4096 l 1,30,-1
 528 4096 l 1,31,-1
 528 1585 l 1,32,-1
 264 1585 l 1,26,-1
EndSplineSet
EndChar

StartChar: D
Encoding: 68 68 25
Width: 2642
Flags: W
LayerCount: 2
Fore
SplineSet
528 1849 m 1,0,-1
 528 2378 l 1,1,-1
 1057 2378 l 1,2,-1
 1057 1981 l 1,3,-1
 792 1981 l 2,4,5
 738 1981 738 1981 699 1943 c 0,6,7
 660 1904 660 1904 660 1849 c 1,8,-1
 528 1849 l 1,0,-1
1321 0 m 1,9,-1
 1321 1849 l 2,10,11
 1321 1904 1321 1904 1282 1943 c 0,12,13
 1243 1981 1243 1981 1189 1981 c 1,14,-1
 1189 2378 l 1,15,-1
 1585 2378 l 2,16,17
 1640 2378 1640 2378 1678 2339 c 0,18,19
 1717 2300 1717 2300 1717 2246 c 2,20,-1
 1717 0 l 1,21,-1
 1321 0 l 1,9,-1
2114 2774 m 1,22,-1
 2114 3831 l 1,23,24
 2168 3831 2168 3831 2207 3793 c 0,25,26
 2246 3754 2246 3754 2246 3699 c 2,27,-1
 2246 2906 l 2,28,29
 2246 2852 2246 2852 2207 2813 c 256,30,31
 2168 2774 2168 2774 2114 2774 c 1,32,-1
 2114 2774 l 1,22,-1
1453 2510 m 1,33,-1
 1453 3435 l 2,34,35
 1453 3490 1453 3490 1414 3528 c 0,36,37
 1375 3567 1375 3567 1321 3567 c 2,38,-1
 0 3567 l 1,39,-1
 0 4029 l 2,40,41
 0 4057 0 4057 19 4076 c 0,42,43
 38 4096 38 4096 66 4096 c 2,44,-1
 1717 4096 l 1,45,-1
 1849 4029 l 1,46,-1
 1915 3963 l 1,47,-1
 1981 3831 l 1,48,-1
 1981 2774 l 1,49,-1
 1915 2642 l 1,50,-1
 1849 2576 l 1,51,-1
 1717 2510 l 1,52,-1
 1453 2510 l 1,33,-1
EndSplineSet
EndChar

StartChar: E
Encoding: 69 69 26
Width: 3567
Flags: W
LayerCount: 2
Fore
SplineSet
1189 396 m 1,0,-1
 1189 3435 l 2,1,2
 1189 3490 1189 3490 1227 3528 c 0,3,4
 1266 3567 1266 3567 1321 3567 c 2,5,-1
 1585 3567 l 1,6,-1
 1585 660 l 1,7,-1
 1519 528 l 1,8,-1
 1453 462 l 1,9,-1
 1321 396 l 1,10,-1
 1189 396 l 1,0,-1
2246 0 m 1,11,-1
 2114 66 l 1,12,-1
 2048 132 l 1,13,-1
 1981 264 l 1,14,-1
 1981 3567 l 1,15,-1
 2378 3567 l 1,16,-1
 2378 0 l 1,17,-1
 2246 0 l 1,11,-1
2510 0 m 1,18,-1
 2510 3567 l 1,19,-1
 2642 3567 l 1,20,-1
 2642 0 l 1,21,-1
 2510 0 l 1,18,-1
264 0 m 1,22,-1
 132 66 l 1,23,-1
 66 132 l 1,24,-1
 0 264 l 1,25,-1
 0 4096 l 1,26,-1
 528 4096 l 1,27,-1
 528 528 l 2,28,29
 528 473 528 473 567 435 c 0,30,31
 605 396 605 396 660 396 c 2,32,-1
 1057 396 l 1,33,-1
 1057 264 l 1,34,-1
 990 132 l 1,35,-1
 924 66 l 1,36,-1
 792 0 l 1,37,-1
 264 0 l 1,22,-1
1189 3567 m 1,38,-1
 1189 3963 l 2,39,40
 1189 4018 1189 4018 1227 4057 c 0,41,42
 1266 4096 1266 4096 1321 4096 c 2,43,-1
 3171 4096 l 1,44,-1
 3171 3699 l 1,45,-1
 1321 3699 l 2,46,47
 1266 3699 1266 3699 1227 3660 c 0,48,49
 1189 3622 1189 3622 1189 3567 c 1,50,-1
 1189 3567 l 1,38,-1
EndSplineSet
EndChar

StartChar: F
Encoding: 70 70 27
Width: 3038
Flags: W
LayerCount: 2
Fore
SplineSet
1189 528 m 1,0,-1
 1189 1321 l 1,1,-1
 1585 1321 l 1,2,-1
 1585 528 l 1,3,-1
 1189 528 l 1,0,-1
264 0 m 1,4,-1
 132 66 l 1,5,-1
 66 132 l 1,6,-1
 0 264 l 1,7,-1
 0 1453 l 1,8,9
 0 1398 0 1398 38 1360 c 0,10,11
 77 1321 77 1321 132 1321 c 2,12,-1
 528 1321 l 1,13,-1
 528 528 l 2,14,15
 528 473 528 473 567 435 c 0,16,17
 605 396 605 396 660 396 c 2,18,-1
 2642 396 l 1,19,-1
 2642 264 l 1,20,21
 2587 264 2587 264 2549 225 c 0,22,23
 2510 186 2510 186 2510 132 c 2,24,-1
 2510 0 l 1,25,-1
 264 0 l 1,4,-1
132 1453 m 2,26,27
 77 1453 77 1453 38 1492 c 0,28,29
 0 1530 0 1530 0 1585 c 2,30,-1
 0 1849 l 1,31,-1
 1981 1849 l 1,32,-1
 1981 1453 l 1,33,-1
 132 1453 l 2,26,27
2114 1453 m 1,34,-1
 2114 2114 l 2,35,36
 2114 2168 2114 2168 2152 2207 c 0,37,38
 2191 2246 2191 2246 2246 2246 c 2,39,-1
 2378 2246 l 1,40,-1
 2378 1585 l 2,41,42
 2378 1530 2378 1530 2339 1492 c 0,43,44
 2300 1453 2300 1453 2246 1453 c 2,45,-1
 2114 1453 l 1,34,-1
2510 1585 m 1,46,-1
 2510 2246 l 1,47,-1
 2642 2246 l 1,48,-1
 2642 1717 l 2,49,50
 2642 1662 2642 1662 2603 1624 c 0,51,52
 2565 1585 2565 1585 2510 1585 c 1,53,-1
 2510 1585 l 1,46,-1
1189 1981 m 1,54,-1
 1189 3963 l 2,55,56
 1189 4018 1189 4018 1227 4057 c 0,57,58
 1266 4096 1266 4096 1321 4096 c 2,59,-1
 1717 4096 l 1,60,-1
 1717 3699 l 1,61,62
 1662 3699 1662 3699 1624 3660 c 0,63,64
 1585 3622 1585 3622 1585 3567 c 2,65,-1
 1585 1981 l 1,66,-1
 1189 1981 l 1,54,-1
EndSplineSet
EndChar

StartChar: G
Encoding: 71 71 28
Width: 2510
Flags: W
LayerCount: 2
Fore
SplineSet
1981 396 m 1,0,-1
 1981 3699 l 1,1,2
 2036 3699 2036 3699 2075 3660 c 0,3,4
 2114 3622 2114 3622 2114 3567 c 2,5,-1
 2114 528 l 2,6,7
 2114 473 2114 473 2075 435 c 0,8,9
 2036 396 2036 396 1981 396 c 1,10,-1
 1981 396 l 1,0,-1
924 2774 m 1,11,-1
 924 4096 l 1,12,-1
 1189 4096 l 2,13,14
 1243 4096 1243 4096 1282 4057 c 256,15,16
 1321 4018 1321 4018 1321 3963 c 2,17,-1
 1321 2774 l 1,18,-1
 924 2774 l 1,11,-1
132 0 m 2,19,20
 77 0 77 0 38 38 c 0,21,22
 0 77 0 77 0 132 c 2,23,-1
 0 4096 l 1,24,-1
 528 4096 l 1,25,-1
 528 396 l 1,26,-1
 1585 396 l 1,27,-1
 1585 3633 l 2,28,29
 1585 3660 1585 3660 1566 3680 c 0,30,31
 1546 3699 1546 3699 1519 3699 c 2,32,-1
 1453 3699 l 1,33,-1
 1453 3963 l 2,34,35
 1453 4018 1453 4018 1414 4057 c 256,36,37
 1375 4096 1375 4096 1321 4096 c 1,38,-1
 1783 4096 l 2,39,40
 1811 4096 1811 4096 1830 4076 c 0,41,42
 1849 4057 1849 4057 1849 4029 c 2,43,-1
 1849 264 l 1,44,-1
 1783 132 l 1,45,-1
 1717 66 l 1,46,-1
 1585 0 l 1,47,-1
 132 0 l 2,19,20
EndSplineSet
EndChar

StartChar: H
Encoding: 72 72 29
Width: 2510
Flags: W
LayerCount: 2
Fore
SplineSet
0 0 m 1,0,-1
 0 528 l 1,1,-1
 132 528 l 1,2,3
 132 473 132 473 170 435 c 0,4,5
 209 396 209 396 264 396 c 2,6,-1
 1849 396 l 1,7,-1
 1849 132 l 2,8,9
 1849 77 1849 77 1811 38 c 0,10,11
 1772 0 1772 0 1717 0 c 2,12,-1
 0 0 l 1,0,-1
1981 132 m 1,13,-1
 1981 660 l 1,14,-1
 2114 660 l 1,15,-1
 2114 264 l 2,16,17
 2114 209 2114 209 2075 170 c 0,18,19
 2036 132 2036 132 1981 132 c 1,20,-1
 1981 132 l 1,13,-1
396 1585 m 1,21,-1
 396 1981 l 2,22,23
 396 2036 396 2036 435 2075 c 0,24,25
 473 2114 473 2114 528 2114 c 2,26,-1
 1585 2114 l 1,27,-1
 1585 1717 l 2,28,29
 1585 1662 1585 1662 1546 1624 c 0,30,31
 1508 1585 1508 1585 1453 1585 c 2,32,-1
 396 1585 l 1,21,-1
1981 3435 m 1,33,-1
 1981 3963 l 1,34,35
 2036 3963 2036 3963 2075 3925 c 0,36,37
 2114 3886 2114 3886 2114 3831 c 2,38,-1
 2114 3435 l 1,39,-1
 1981 3435 l 1,33,-1
0 3435 m 1,40,-1
 0 3963 l 2,41,42
 0 4018 0 4018 38 4057 c 0,43,44
 77 4096 77 4096 132 4096 c 2,45,-1
 1717 4096 l 2,46,47
 1772 4096 1772 4096 1811 4057 c 0,48,49
 1849 4018 1849 4018 1849 3963 c 2,50,-1
 1849 3567 l 1,51,-1
 264 3567 l 2,52,53
 209 3567 209 3567 170 3528 c 0,54,55
 132 3490 132 3490 132 3435 c 1,56,-1
 0 3435 l 1,40,-1
EndSplineSet
EndChar

StartChar: I
Encoding: 73 73 30
Width: 1585
Flags: W
LayerCount: 2
Fore
SplineSet
1057 0 m 1,0,-1
 1057 1057 l 1,1,2
 1111 1057 1111 1057 1150 1018 c 256,3,4
 1189 979 1189 979 1189 924 c 2,5,-1
 1189 0 l 1,6,-1
 1057 0 l 1,0,-1
0 3038 m 1,7,-1
 0 3831 l 1,8,-1
 66 3963 l 1,9,-1
 132 4029 l 1,10,-1
 264 4096 l 1,11,-1
 528 4096 l 1,12,-1
 528 3303 l 1,13,-1
 462 3171 l 1,14,-1
 396 3105 l 1,15,-1
 264 3038 l 1,16,-1
 0 3038 l 1,7,-1
660 0 m 1,17,-1
 660 4096 l 1,18,-1
 924 4096 l 1,19,-1
 924 0 l 1,20,-1
 660 0 l 1,17,-1
1057 1189 m 1,21,-1
 1057 4096 l 1,22,23
 1111 4096 1111 4096 1150 4057 c 256,24,25
 1189 4018 1189 4018 1189 3963 c 2,26,-1
 1189 1189 l 1,27,-1
 1057 1189 l 1,21,-1
EndSplineSet
EndChar

StartChar: J
Encoding: 74 74 31
Width: 2378
Flags: W
LayerCount: 2
Fore
SplineSet
0 2510 m 1,0,-1
 0 3303 l 1,1,-1
 66 3435 l 1,2,-1
 132 3501 l 1,3,-1
 264 3567 l 1,4,-1
 528 3567 l 1,5,-1
 528 2774 l 1,6,-1
 462 2642 l 1,7,-1
 396 2576 l 1,8,-1
 264 2510 l 1,9,-1
 0 2510 l 1,0,-1
660 3038 m 1,10,-1
 660 3567 l 1,11,-1
 924 3567 l 2,12,13
 979 3567 979 3567 1018 3606 c 0,14,15
 1057 3644 1057 3644 1057 3699 c 1,16,-1
 1189 3699 l 1,17,-1
 1189 3038 l 1,18,-1
 660 3038 l 1,10,-1
0 0 m 1,19,-1
 0 396 l 1,20,-1
 1189 396 l 2,21,22
 1243 396 1243 396 1282 435 c 0,23,24
 1321 473 1321 473 1321 528 c 2,25,-1
 1321 4096 l 1,26,-1
 1717 4096 l 1,27,-1
 1717 924 l 1,28,-1
 1585 924 l 1,29,-1
 1585 792 l 1,30,-1
 1717 792 l 1,31,-1
 1717 660 l 1,32,-1
 1585 660 l 1,33,-1
 1585 528 l 1,34,-1
 1717 528 l 1,35,-1
 1717 264 l 1,36,-1
 1651 132 l 1,37,-1
 1585 66 l 1,38,-1
 1453 0 l 1,39,-1
 0 0 l 1,19,-1
1849 2114 m 1,40,-1
 1849 4096 l 1,41,-1
 1981 4096 l 1,42,-1
 1981 2246 l 2,43,44
 1981 2191 1981 2191 1943 2152 c 0,45,46
 1904 2114 1904 2114 1849 2114 c 1,47,-1
 1849 2114 l 1,40,-1
EndSplineSet
EndChar

StartChar: K
Encoding: 75 75 32
Width: 2378
Flags: W
LayerCount: 2
Fore
SplineSet
132 0 m 2,0,1
 77 0 77 0 38 38 c 0,2,3
 0 77 0 77 0 132 c 2,4,-1
 0 396 l 1,5,-1
 1981 396 l 1,6,-1
 1981 0 l 1,7,-1
 132 0 l 2,0,1
132 3435 m 2,8,9
 77 3435 77 3435 38 3474 c 0,10,11
 0 3512 0 3512 0 3567 c 2,12,-1
 0 4096 l 1,13,-1
 1189 4096 l 1,14,-1
 1189 3699 l 1,15,-1
 660 3699 l 2,16,17
 605 3699 605 3699 567 3660 c 0,18,19
 528 3622 528 3622 528 3567 c 2,20,-1
 528 3435 l 1,21,-1
 132 3435 l 2,8,9
1321 528 m 1,22,-1
 1321 4096 l 1,23,-1
 1717 4096 l 1,24,-1
 1717 792 l 1,25,-1
 1651 660 l 1,26,-1
 1585 594 l 1,27,-1
 1453 528 l 1,28,-1
 1321 528 l 1,22,-1
1849 528 m 1,29,-1
 1849 4096 l 1,30,-1
 1981 4096 l 1,31,-1
 1981 660 l 2,32,33
 1981 605 1981 605 1943 567 c 0,34,35
 1904 528 1904 528 1849 528 c 1,36,-1
 1849 528 l 1,29,-1
EndSplineSet
EndChar

StartChar: L
Encoding: 76 76 33
Width: 1585
Flags: W
LayerCount: 2
Fore
SplineSet
264 0 m 1,0,-1
 132 66 l 1,1,-1
 66 132 l 1,2,-1
 0 264 l 1,3,-1
 0 1057 l 1,4,-1
 264 1057 l 1,5,-1
 396 990 l 1,6,-1
 462 924 l 1,7,-1
 528 792 l 1,8,-1
 528 0 l 1,9,-1
 264 0 l 1,0,-1
1057 0 m 1,10,-1
 1057 2906 l 1,11,-1
 1189 2906 l 1,12,-1
 1189 132 l 2,13,14
 1189 77 1189 77 1150 38 c 0,15,16
 1111 0 1111 0 1057 0 c 1,17,-1
 1057 0 l 1,10,-1
660 0 m 1,18,-1
 660 4096 l 1,19,-1
 924 4096 l 1,20,-1
 924 0 l 1,21,-1
 660 0 l 1,18,-1
1057 3038 m 1,22,-1
 1057 4096 l 1,23,-1
 1189 4096 l 1,24,-1
 1189 3171 l 2,25,26
 1189 3116 1189 3116 1150 3077 c 256,27,28
 1111 3038 1111 3038 1057 3038 c 1,29,-1
 1057 3038 l 1,22,-1
EndSplineSet
EndChar

StartChar: M
Encoding: 77 77 34
Width: 2642
Flags: W
LayerCount: 2
Fore
SplineSet
132 0 m 2,0,1
 77 0 77 0 38 38 c 0,2,3
 0 77 0 77 0 132 c 2,4,-1
 0 3303 l 1,5,-1
 66 3435 l 1,6,-1
 132 3501 l 1,7,-1
 264 3567 l 1,8,-1
 528 3567 l 1,9,-1
 528 528 l 2,10,11
 528 473 528 473 567 435 c 0,12,13
 605 396 605 396 660 396 c 2,14,-1
 1981 396 l 2,15,16
 2036 396 2036 396 2075 435 c 0,17,18
 2114 473 2114 473 2114 528 c 1,19,-1
 2246 528 l 1,20,-1
 2246 0 l 1,21,-1
 132 0 l 2,0,1
1849 3435 m 1,22,23
 1849 3490 1849 3490 1811 3528 c 0,24,25
 1772 3567 1772 3567 1717 3567 c 2,26,-1
 660 3567 l 1,27,-1
 660 3831 l 1,28,-1
 726 3963 l 1,29,-1
 792 4029 l 1,30,-1
 924 4096 l 1,31,-1
 1981 4096 l 1,32,-1
 1981 3435 l 1,33,-1
 1849 3435 l 1,22,23
2114 3435 m 1,34,-1
 2114 4096 l 1,35,-1
 2246 4096 l 1,36,-1
 2246 3435 l 1,37,-1
 2114 3435 l 1,34,-1
EndSplineSet
EndChar

StartChar: N
Encoding: 78 78 35
Width: 3699
Flags: W
LayerCount: 2
Fore
SplineSet
3171 0 m 1,0,-1
 3171 3435 l 1,1,2
 3225 3435 3225 3435 3264 3396 c 256,3,4
 3303 3357 3303 3357 3303 3303 c 2,5,-1
 3303 0 l 1,6,-1
 3171 0 l 1,0,-1
1453 528 m 1,7,-1
 1453 3303 l 1,8,-1
 1519 3435 l 1,9,-1
 1585 3501 l 1,10,-1
 1717 3567 l 1,11,-1
 1849 3567 l 1,12,-1
 1849 792 l 1,13,-1
 1783 660 l 1,14,-1
 1717 594 l 1,15,-1
 1585 528 l 1,16,-1
 1453 528 l 1,7,-1
2774 0 m 1,17,-1
 2774 3567 l 1,18,-1
 2906 3567 l 2,19,20
 2961 3567 2961 3567 3000 3528 c 0,21,22
 3038 3490 3038 3490 3038 3435 c 2,23,-1
 3038 0 l 1,24,-1
 2774 0 l 1,17,-1
264 0 m 1,25,-1
 132 66 l 1,26,-1
 66 132 l 1,27,-1
 0 264 l 1,28,-1
 0 3831 l 1,29,-1
 66 3963 l 1,30,-1
 132 4029 l 1,31,-1
 264 4096 l 1,32,-1
 792 4096 l 1,33,-1
 792 3567 l 1,34,-1
 660 3567 l 2,35,36
 605 3567 605 3567 567 3528 c 0,37,38
 528 3490 528 3490 528 3435 c 2,39,-1
 528 528 l 2,40,41
 528 473 528 473 567 435 c 0,42,43
 605 396 605 396 660 396 c 2,44,-1
 1717 396 l 2,45,46
 1772 396 1772 396 1811 435 c 0,47,48
 1849 473 1849 473 1849 528 c 1,49,-1
 1849 132 l 2,50,51
 1849 77 1849 77 1811 38 c 0,52,53
 1772 0 1772 0 1717 0 c 2,54,-1
 264 0 l 1,25,-1
2510 2246 m 2,55,56
 2455 2246 2455 2246 2417 2284 c 0,57,58
 2378 2323 2378 2323 2378 2378 c 2,59,-1
 2378 3567 l 2,60,61
 2378 3622 2378 3622 2339 3660 c 0,62,63
 2300 3699 2300 3699 2246 3699 c 2,64,-1
 1849 3699 l 1,65,-1
 1849 3963 l 2,66,67
 1849 4018 1849 4018 1888 4057 c 256,68,69
 1927 4096 1927 4096 1981 4096 c 2,70,-1
 2378 4096 l 1,71,-1
 2510 4029 l 1,72,-1
 2576 3963 l 1,73,-1
 2642 3831 l 1,74,-1
 2642 2246 l 1,75,-1
 2510 2246 l 2,55,56
EndSplineSet
EndChar

StartChar: O
Encoding: 79 79 36
Width: 3038
Flags: W
LayerCount: 2
Fore
SplineSet
2510 0 m 1,0,-1
 2510 2246 l 1,1,2
 2565 2246 2565 2246 2603 2207 c 0,3,4
 2642 2168 2642 2168 2642 2114 c 2,5,-1
 2642 66 l 2,6,7
 2642 38 2642 38 2623 19 c 0,8,9
 2603 0 2603 0 2576 0 c 2,10,-1
 2510 0 l 1,0,-1
66 0 m 2,11,12
 38 0 38 0 19 19 c 256,13,14
 0 38 0 38 0 66 c 2,15,-1
 0 2642 l 1,16,-1
 66 2774 l 1,17,-1
 132 2840 l 1,18,-1
 264 2906 l 1,19,-1
 528 2906 l 1,20,-1
 528 462 l 2,21,22
 528 435 528 435 547 415 c 0,23,24
 567 396 567 396 594 396 c 2,25,-1
 2246 396 l 2,26,27
 2300 396 2300 396 2339 435 c 0,28,29
 2378 473 2378 473 2378 528 c 1,30,-1
 2378 66 l 2,31,32
 2378 38 2378 38 2359 19 c 0,33,34
 2339 0 2339 0 2312 0 c 2,35,-1
 66 0 l 2,11,12
660 528 m 1,36,-1
 660 3831 l 1,37,-1
 726 3963 l 1,38,-1
 792 4029 l 1,39,-1
 924 4096 l 1,40,-1
 1057 4096 l 1,41,-1
 1057 660 l 1,42,-1
 1981 660 l 2,43,44
 2036 660 2036 660 2075 699 c 256,45,46
 2114 738 2114 738 2114 792 c 2,47,-1
 2114 2378 l 1,48,-1
 2246 2378 l 2,49,50
 2301 2378 2301 2378 2339 2339 c 0,51,52
 2378 2300 2378 2300 2378 2246 c 2,53,-1
 2378 792 l 1,54,-1
 2312 660 l 1,55,-1
 2246 594 l 1,56,-1
 2114 528 l 1,57,-1
 660 528 l 1,36,-1
1189 3699 m 1,58,-1
 1189 4096 l 1,59,-1
 1585 4096 l 1,60,-1
 1585 3699 l 1,61,-1
 1189 3699 l 1,58,-1
1717 792 m 1,62,-1
 1717 4096 l 1,63,-1
 1849 4029 l 1,64,-1
 1915 3963 l 1,65,-1
 1981 3831 l 1,66,-1
 1981 924 l 2,67,68
 1981 870 1981 870 1943 831 c 0,69,70
 1904 792 1904 792 1849 792 c 2,71,-1
 1717 792 l 1,62,-1
EndSplineSet
EndChar

StartChar: P
Encoding: 80 80 37
Width: 2774
Flags: W
LayerCount: 2
Fore
SplineSet
1717 528 m 1,0,-1
 1717 3435 l 2,1,2
 1717 3490 1717 3490 1756 3528 c 0,3,4
 1795 3567 1795 3567 1849 3567 c 2,5,-1
 2114 3567 l 1,6,-1
 2114 792 l 1,7,-1
 2048 660 l 1,8,-1
 1981 594 l 1,9,-1
 1849 528 l 1,10,-1
 1717 528 l 1,0,-1
264 0 m 1,11,-1
 132 66 l 1,12,-1
 66 132 l 1,13,-1
 0 264 l 1,14,-1
 0 3831 l 1,15,-1
 66 3963 l 1,16,-1
 132 4029 l 1,17,-1
 264 4096 l 1,18,-1
 660 4096 l 1,19,-1
 660 3699 l 1,20,21
 605 3699 605 3699 567 3660 c 0,22,23
 528 3622 528 3622 528 3567 c 2,24,-1
 528 528 l 2,25,26
 528 473 528 473 567 435 c 0,27,28
 605 396 605 396 660 396 c 2,29,-1
 1981 396 l 2,30,31
 2036 396 2036 396 2075 435 c 0,32,33
 2114 473 2114 473 2114 528 c 1,34,-1
 2114 132 l 2,35,36
 2114 77 2114 77 2075 38 c 0,37,38
 2036 0 2036 0 1981 0 c 2,39,-1
 264 0 l 1,11,-1
792 2642 m 1,40,-1
 792 4096 l 1,41,-1
 1189 4096 l 1,42,-1
 1189 2708 l 2,43,44
 1189 2681 1189 2681 1169 2661 c 0,45,46
 1150 2642 1150 2642 1123 2642 c 2,47,-1
 792 2642 l 1,40,-1
1849 3699 m 2,48,49
 1794 3699 1794 3699 1756 3738 c 0,50,51
 1717 3777 1717 3777 1717 3831 c 2,52,-1
 1717 4096 l 1,53,-1
 2114 4096 l 1,54,-1
 2114 3699 l 1,55,-1
 1849 3699 l 2,48,49
2246 3303 m 1,56,-1
 2246 4096 l 1,57,-1
 2378 4096 l 1,58,-1
 2378 3303 l 1,59,-1
 2246 3303 l 1,56,-1
EndSplineSet
EndChar

StartChar: Q
Encoding: 81 81 38
Width: 2774
Flags: W
LayerCount: 2
Fore
SplineSet
1585 0 m 1,0,-1
 1585 528 l 1,1,-1
 1717 528 l 1,2,-1
 1717 66 l 2,3,4
 1717 38 1717 38 1698 19 c 0,5,6
 1678 0 1678 0 1651 0 c 2,7,-1
 1585 0 l 1,0,-1
264 0 m 1,8,-1
 132 66 l 1,9,-1
 66 132 l 1,10,-1
 0 264 l 1,11,-1
 0 3831 l 1,12,-1
 66 3963 l 1,13,-1
 132 4029 l 1,14,-1
 264 4096 l 1,15,-1
 660 4096 l 1,16,-1
 660 3699 l 1,17,18
 605 3699 605 3699 567 3660 c 0,19,20
 528 3622 528 3622 528 3567 c 2,21,-1
 528 528 l 2,22,23
 528 473 528 473 567 435 c 0,24,25
 605 396 605 396 660 396 c 2,26,-1
 1453 396 l 1,27,-1
 1453 66 l 2,28,29
 1453 38 1453 38 1434 19 c 0,30,31
 1414 0 1414 0 1387 0 c 2,32,-1
 264 0 l 1,8,-1
792 3699 m 1,33,-1
 792 4096 l 1,34,-1
 1585 4096 l 1,35,-1
 1585 3699 l 1,36,-1
 792 3699 l 1,33,-1
1717 1585 m 1,37,-1
 1717 4096 l 1,38,-1
 2114 4096 l 1,39,-1
 2114 1849 l 1,40,-1
 2048 1717 l 1,41,-1
 1981 1651 l 1,42,-1
 1849 1585 l 1,43,-1
 1717 1585 l 1,37,-1
2246 1981 m 1,44,-1
 2246 4096 l 1,45,-1
 2378 4096 l 1,46,-1
 2378 2114 l 2,47,48
 2378 2059 2378 2059 2339 2020 c 256,49,50
 2300 1981 2300 1981 2246 1981 c 1,51,-1
 2246 1981 l 1,44,-1
EndSplineSet
EndChar

StartChar: R
Encoding: 82 82 39
Width: 2642
Flags: W
LayerCount: 2
Fore
SplineSet
1057 0 m 1,0,-1
 1057 2246 l 2,1,2
 1057 2300 1057 2300 1095 2339 c 0,3,4
 1134 2378 1134 2378 1189 2378 c 2,5,-1
 1717 2378 l 1,6,-1
 1717 2114 l 2,7,8
 1717 2059 1717 2059 1678 2020 c 0,9,10
 1640 1981 1640 1981 1585 1981 c 256,11,12
 1530 1981 1530 1981 1492 1943 c 0,13,14
 1453 1904 1453 1904 1453 1849 c 2,15,-1
 1453 0 l 1,16,-1
 1057 0 l 1,0,-1
2114 2774 m 1,17,-1
 2114 3831 l 1,18,19
 2168 3831 2168 3831 2207 3793 c 0,20,21
 2246 3754 2246 3754 2246 3699 c 2,22,-1
 2246 2906 l 2,23,24
 2246 2852 2246 2852 2207 2813 c 256,25,26
 2168 2774 2168 2774 2114 2774 c 1,27,-1
 2114 2774 l 1,17,-1
1453 2510 m 1,28,-1
 1453 3435 l 2,29,30
 1453 3490 1453 3490 1414 3528 c 0,31,32
 1375 3567 1375 3567 1321 3567 c 2,33,-1
 0 3567 l 1,34,-1
 0 4029 l 2,35,36
 0 4057 0 4057 19 4076 c 0,37,38
 38 4096 38 4096 66 4096 c 2,39,-1
 1717 4096 l 1,40,-1
 1849 4029 l 1,41,-1
 1915 3963 l 1,42,-1
 1981 3831 l 1,43,-1
 1981 2774 l 1,44,-1
 1915 2642 l 1,45,-1
 1849 2576 l 1,46,-1
 1717 2510 l 1,47,-1
 1453 2510 l 1,28,-1
EndSplineSet
EndChar

StartChar: S
Encoding: 83 83 40
Width: 2774
Flags: W
LayerCount: 2
Fore
SplineSet
0 264 m 1,0,-1
 0 792 l 1,1,-1
 132 792 l 1,2,-1
 132 660 l 1,3,-1
 1057 660 l 1,4,-1
 1057 396 l 2,5,6
 1057 341 1057 341 1018 302 c 0,7,8
 979 264 979 264 924 264 c 2,9,-1
 0 264 l 1,0,-1
1321 1189 m 2,10,11
 1266 1189 1266 1189 1227 1227 c 0,12,13
 1189 1266 1189 1266 1189 1321 c 2,14,-1
 1189 1981 l 1,15,-1
 1453 1981 l 2,16,17
 1508 1981 1508 1981 1546 1943 c 0,18,19
 1585 1904 1585 1904 1585 1849 c 2,20,-1
 1585 1189 l 1,21,-1
 1321 1189 l 2,10,11
924 1585 m 1,22,-1
 792 1651 l 1,23,-1
 726 1717 l 1,24,-1
 660 1849 l 1,25,-1
 660 3038 l 1,26,-1
 1057 3038 l 1,27,-1
 1057 1585 l 1,28,-1
 924 1585 l 1,22,-1
396 2510 m 1,29,-1
 264 2576 l 1,30,-1
 198 2642 l 1,31,-1
 132 2774 l 1,32,-1
 132 4096 l 1,33,-1
 528 4096 l 1,34,-1
 528 2510 l 1,35,-1
 396 2510 l 1,29,-1
1717 0 m 1,36,-1
 1717 4096 l 1,37,-1
 2114 4096 l 1,38,-1
 2114 132 l 2,39,40
 2114 77 2114 77 2075 38 c 0,41,42
 2036 0 2036 0 1981 0 c 2,43,-1
 1717 0 l 1,36,-1
2246 0 m 1,44,-1
 2246 4096 l 1,45,-1
 2378 4096 l 1,46,-1
 2378 132 l 2,47,48
 2378 77 2378 77 2339 38 c 0,49,50
 2300 0 2300 0 2246 0 c 1,51,-1
 2246 0 l 1,44,-1
EndSplineSet
EndChar

StartChar: T
Encoding: 84 84 41
Width: 2246
Flags: W
LayerCount: 2
Fore
SplineSet
396 0 m 1,0,-1
 264 66 l 1,1,-1
 198 132 l 1,2,-1
 132 264 l 1,3,-1
 132 792 l 1,4,-1
 0 792 l 1,5,-1
 0 924 l 1,6,-1
 396 924 l 2,7,8
 451 924 451 924 489 886 c 0,9,10
 528 847 528 847 528 792 c 2,11,-1
 528 0 l 1,12,-1
 396 0 l 1,0,-1
132 1057 m 2,13,14
 77 1057 77 1057 38 1095 c 0,15,16
 0 1134 0 1134 0 1189 c 2,17,-1
 0 1453 l 1,18,-1
 264 1453 l 2,19,20
 319 1453 319 1453 357 1414 c 0,21,22
 396 1375 396 1375 396 1321 c 2,23,-1
 396 1057 l 1,24,-1
 132 1057 l 2,13,14
1321 0 m 2,25,26
 1266 0 1266 0 1227 38 c 0,27,28
 1189 77 1189 77 1189 132 c 2,29,-1
 1189 924 l 2,30,31
 1189 979 1189 979 1227 1018 c 0,32,33
 1266 1057 1266 1057 1321 1057 c 2,34,-1
 1387 1057 l 2,35,36
 1414 1057 1414 1057 1434 1076 c 0,37,38
 1453 1095 1453 1095 1453 1123 c 2,39,-1
 1453 1453 l 1,40,-1
 1585 1453 l 1,41,-1
 1585 132 l 2,42,43
 1585 77 1585 77 1546 38 c 0,44,45
 1508 0 1508 0 1453 0 c 2,46,-1
 1321 0 l 2,25,26
1717 528 m 1,47,-1
 1717 1453 l 1,48,-1
 1849 1453 l 1,49,-1
 1849 660 l 2,50,51
 1849 605 1849 605 1811 567 c 0,52,53
 1772 528 1772 528 1717 528 c 1,54,-1
 1717 528 l 1,47,-1
792 0 m 2,55,56
 737 0 737 0 699 38 c 0,57,58
 660 77 660 77 660 132 c 2,59,-1
 660 4096 l 1,60,-1
 1057 4096 l 1,61,-1
 1057 132 l 2,62,63
 1057 77 1057 77 1095 38 c 0,64,65
 1134 0 1134 0 1189 0 c 1,66,-1
 792 0 l 2,55,56
EndSplineSet
EndChar

StartChar: U
Encoding: 85 85 42
Width: 2510
Flags: W
LayerCount: 2
Fore
SplineSet
1585 528 m 1,0,-1
 1585 3237 l 2,1,2
 1585 3264 1585 3264 1566 3283 c 0,3,4
 1546 3303 1546 3303 1519 3303 c 2,5,-1
 1057 3303 l 1,6,-1
 1057 3435 l 1,7,-1
 1123 3567 l 1,8,-1
 1189 3633 l 1,9,-1
 1321 3699 l 1,10,-1
 1783 3699 l 2,11,12
 1811 3699 1811 3699 1830 3680 c 0,13,14
 1849 3660 1849 3660 1849 3633 c 2,15,-1
 1849 660 l 2,16,17
 1849 605 1849 605 1811 567 c 0,18,19
 1772 528 1772 528 1717 528 c 2,20,-1
 1585 528 l 1,0,-1
1981 528 m 1,21,-1
 1981 3831 l 1,22,-1
 2114 3831 l 1,23,-1
 2114 660 l 2,24,25
 2114 605 2114 605 2075 567 c 0,26,27
 2036 528 2036 528 1981 528 c 1,28,-1
 1981 528 l 1,21,-1
132 0 m 2,29,30
 77 0 77 0 38 38 c 0,31,32
 0 77 0 77 0 132 c 2,33,-1
 0 4096 l 1,34,-1
 528 4096 l 1,35,-1
 528 396 l 1,36,-1
 2114 396 l 1,37,-1
 2114 132 l 2,38,39
 2114 77 2114 77 2075 38 c 0,40,41
 2036 0 2036 0 1981 0 c 2,42,-1
 132 0 l 2,29,30
EndSplineSet
EndChar

StartChar: V
Encoding: 86 86 43
Width: 2510
Flags: W
LayerCount: 2
Fore
SplineSet
792 0 m 1,0,-1
 792 132 l 1,1,2
 847 132 847 132 886 170 c 0,3,4
 924 209 924 209 924 264 c 2,5,-1
 924 1717 l 2,6,7
 924 1772 924 1772 963 1811 c 0,8,9
 1002 1849 1002 1849 1057 1849 c 2,10,-1
 1321 1849 l 1,11,-1
 1321 0 l 1,12,-1
 792 0 l 1,0,-1
264 1981 m 1,13,-1
 132 2048 l 1,14,-1
 66 2114 l 1,15,-1
 0 2246 l 1,16,-1
 0 2510 l 1,17,18
 0 2455 0 2455 38 2417 c 0,19,20
 77 2378 77 2378 132 2378 c 2,21,-1
 1321 2378 l 1,22,-1
 1321 1981 l 1,23,-1
 264 1981 l 1,13,-1
132 2510 m 2,24,25
 77 2510 77 2510 38 2549 c 0,26,27
 0 2587 0 2587 0 2642 c 2,28,-1
 0 3303 l 1,29,-1
 132 3303 l 1,30,-1
 132 3435 l 1,31,-1
 0 3435 l 1,32,-1
 0 3567 l 1,33,-1
 132 3567 l 1,34,-1
 132 3963 l 1,35,-1
 0 3963 l 1,36,-1
 0 4096 l 1,37,-1
 528 4096 l 1,38,-1
 528 2510 l 1,39,-1
 132 2510 l 2,24,25
1453 1981 m 1,40,-1
 1453 3963 l 2,41,42
 1453 4018 1453 4018 1492 4057 c 0,43,44
 1530 4096 1530 4096 1585 4096 c 2,45,-1
 1717 4096 l 1,46,-1
 1717 2114 l 2,47,48
 1717 2059 1717 2059 1678 2020 c 0,49,50
 1640 1981 1640 1981 1585 1981 c 2,51,-1
 1453 1981 l 1,40,-1
1849 1981 m 1,52,-1
 1849 4096 l 1,53,-1
 2114 4096 l 1,54,-1
 2114 3963 l 1,55,56
 2059 3963 2059 3963 2020 3925 c 0,57,58
 1981 3886 1981 3886 1981 3831 c 2,59,-1
 1981 2114 l 2,60,61
 1981 2059 1981 2059 1943 2020 c 0,62,63
 1904 1981 1904 1981 1849 1981 c 1,64,-1
 1849 1981 l 1,52,-1
EndSplineSet
EndChar

StartChar: W
Encoding: 87 87 44
Width: 3038
Flags: W
LayerCount: 2
Fore
SplineSet
264 0 m 1,0,-1
 132 66 l 1,1,-1
 66 132 l 1,2,-1
 0 264 l 1,3,-1
 0 2510 l 1,4,-1
 132 2510 l 1,5,-1
 132 2642 l 1,6,-1
 0 2642 l 1,7,-1
 0 2774 l 1,8,-1
 132 2774 l 1,9,-1
 132 2906 l 1,10,-1
 0 2906 l 1,11,-1
 0 3038 l 1,12,-1
 132 3038 l 1,13,-1
 132 3171 l 1,14,-1
 0 3171 l 1,15,-1
 0 3831 l 1,16,-1
 66 3963 l 1,17,-1
 132 4029 l 1,18,-1
 264 4096 l 1,19,-1
 528 4096 l 1,20,-1
 528 528 l 2,21,22
 528 473 528 473 567 435 c 0,23,24
 605 396 605 396 660 396 c 2,25,-1
 2642 396 l 1,26,-1
 2642 0 l 1,27,-1
 264 0 l 1,0,-1
660 3699 m 1,28,-1
 660 4096 l 1,29,-1
 1849 4096 l 1,30,-1
 1849 3699 l 1,31,-1
 660 3699 l 1,28,-1
1981 528 m 1,32,-1
 1981 4096 l 1,33,-1
 2378 4096 l 1,34,-1
 2378 660 l 2,35,36
 2378 605 2378 605 2339 567 c 0,37,38
 2300 528 2300 528 2246 528 c 2,39,-1
 1981 528 l 1,32,-1
2510 528 m 1,40,-1
 2510 4096 l 1,41,-1
 2642 4096 l 1,42,-1
 2642 660 l 2,43,44
 2642 605 2642 605 2603 567 c 0,45,46
 2565 528 2565 528 2510 528 c 1,47,-1
 2510 528 l 1,40,-1
EndSplineSet
EndChar

StartChar: X
Encoding: 88 88 45
Width: 3038
Flags: W
LayerCount: 2
Fore
SplineSet
2510 264 m 1,0,-1
 2510 924 l 1,1,-1
 2642 924 l 1,2,-1
 2642 396 l 2,3,4
 2642 341 2642 341 2603 302 c 0,5,6
 2565 264 2565 264 2510 264 c 1,7,-1
 2510 264 l 1,0,-1
132 0 m 2,8,9
 77 0 77 0 38 38 c 0,10,11
 0 77 0 77 0 132 c 2,12,-1
 0 2246 l 1,13,-1
 66 2378 l 1,14,-1
 132 2444 l 1,15,-1
 264 2510 l 1,16,-1
 528 2510 l 1,17,-1
 528 462 l 2,18,19
 528 435 528 435 547 415 c 0,20,21
 567 396 567 396 594 396 c 2,22,-1
 2246 396 l 2,23,24
 2300 396 2300 396 2339 435 c 0,25,26
 2378 473 2378 473 2378 528 c 1,27,-1
 2378 264 l 1,28,-1
 2312 132 l 1,29,-1
 2246 66 l 1,30,-1
 2114 0 l 1,31,-1
 132 0 l 2,8,9
660 528 m 1,32,-1
 660 792 l 1,33,-1
 1981 792 l 1,34,-1
 1981 2510 l 1,35,-1
 2114 2510 l 1,36,-1
 2246 2444 l 1,37,-1
 2312 2378 l 1,38,-1
 2378 2246 l 1,39,-1
 2378 660 l 2,40,41
 2378 605 2378 605 2339 567 c 0,42,43
 2300 528 2300 528 2246 528 c 2,44,-1
 660 528 l 1,32,-1
924 2906 m 1,45,-1
 924 3831 l 1,46,-1
 990 3963 l 1,47,-1
 1057 4029 l 1,48,-1
 1189 4096 l 1,49,-1
 1321 4096 l 1,50,-1
 1321 3038 l 2,51,52
 1321 2984 1321 2984 1282 2945 c 256,53,54
 1243 2906 1243 2906 1189 2906 c 2,55,-1
 924 2906 l 1,45,-1
1453 2906 m 1,56,-1
 1453 4096 l 1,57,-1
 1585 4096 l 1,58,-1
 1585 3038 l 2,59,60
 1585 2984 1585 2984 1546 2945 c 0,61,62
 1508 2906 1508 2906 1453 2906 c 1,63,-1
 1453 2906 l 1,56,-1
EndSplineSet
EndChar

StartChar: Y
Encoding: 89 89 46
Width: 2642
Flags: W
LayerCount: 2
Fore
SplineSet
264 0 m 1,0,-1
 132 66 l 1,1,-1
 66 132 l 1,2,-1
 0 264 l 1,3,-1
 0 4029 l 2,4,5
 0 4057 0 4057 19 4076 c 0,6,7
 38 4096 38 4096 66 4096 c 2,8,-1
 528 4096 l 1,9,-1
 528 462 l 2,10,11
 528 435 528 435 547 415 c 0,12,13
 567 396 567 396 594 396 c 2,14,-1
 1585 396 l 1,15,-1
 1585 264 l 1,16,-1
 1519 132 l 1,17,-1
 1453 66 l 1,18,-1
 1321 0 l 1,19,-1
 264 0 l 1,0,-1
660 2642 m 1,20,-1
 660 4096 l 1,21,-1
 1057 4096 l 1,22,-1
 1057 2774 l 2,23,24
 1057 2719 1057 2719 1018 2681 c 0,25,26
 979 2642 979 2642 924 2642 c 2,27,-1
 660 2642 l 1,20,-1
1585 528 m 1,28,-1
 1585 3963 l 2,29,30
 1585 4018 1585 4018 1624 4057 c 0,31,32
 1662 4096 1662 4096 1717 4096 c 2,33,-1
 1981 4096 l 1,34,-1
 1981 792 l 1,35,-1
 1915 660 l 1,36,-1
 1849 594 l 1,37,-1
 1717 528 l 1,38,-1
 1585 528 l 1,28,-1
2114 1321 m 1,39,-1
 2114 4096 l 1,40,-1
 2246 4096 l 1,41,-1
 2246 1453 l 2,42,43
 2246 1398 2246 1398 2207 1360 c 0,44,45
 2168 1321 2168 1321 2114 1321 c 1,46,-1
 2114 1321 l 1,39,-1
EndSplineSet
EndChar

StartChar: Z
Encoding: 90 90 47
Width: 2906
Flags: W
LayerCount: 2
Fore
SplineSet
660 0 m 1,0,-1
 660 396 l 1,1,-1
 1585 396 l 1,2,-1
 1585 0 l 1,3,-1
 660 0 l 1,0,-1
264 0 m 1,4,-1
 132 66 l 1,5,-1
 66 132 l 1,6,-1
 0 264 l 1,7,-1
 0 660 l 1,8,-1
 264 660 l 1,9,-1
 396 594 l 1,10,-1
 462 528 l 1,11,-1
 528 396 l 1,12,-1
 528 0 l 1,13,-1
 264 0 l 1,4,-1
1717 0 m 1,14,-1
 1717 396 l 1,15,-1
 1783 396 l 2,16,17
 1811 396 1811 396 1830 415 c 0,18,19
 1849 435 1849 435 1849 462 c 2,20,-1
 1849 1849 l 1,21,-1
 2378 1849 l 1,22,-1
 2378 264 l 1,23,-1
 2312 132 l 1,24,-1
 2246 66 l 1,25,-1
 2114 0 l 1,26,-1
 1717 0 l 1,14,-1
396 1849 m 1,27,-1
 396 2246 l 2,28,29
 396 2301 396 2301 435 2339 c 0,30,31
 473 2378 473 2378 528 2378 c 2,32,-1
 2510 2378 l 1,33,-1
 2510 1981 l 1,34,-1
 924 1981 l 2,35,36
 870 1981 870 1981 831 1943 c 0,37,38
 792 1904 792 1904 792 1849 c 1,39,-1
 396 1849 l 1,27,-1
1849 2510 m 1,40,-1
 1849 3963 l 2,41,42
 1849 4018 1849 4018 1888 4057 c 256,43,44
 1927 4096 1927 4096 1981 4096 c 2,45,-1
 2510 4096 l 1,46,-1
 2510 3567 l 1,47,48
 2455 3567 2455 3567 2417 3528 c 0,49,50
 2378 3490 2378 3490 2378 3435 c 2,51,-1
 2378 2510 l 1,52,-1
 1849 2510 l 1,40,-1
EndSplineSet
EndChar

StartChar: a
Encoding: 97 97 48
Width: 2246
Flags: W
LayerCount: 2
Fore
SplineSet
0 0 m 1,0,-1
 0 1321 l 2,1,2
 0 1376 0 1376 38 1414 c 0,3,4
 77 1453 77 1453 132 1453 c 2,5,-1
 528 1453 l 1,6,-1
 528 0 l 1,7,-1
 0 0 l 1,0,-1
1453 0 m 1,8,-1
 1453 1453 l 2,9,10
 1453 1508 1453 1508 1414 1546 c 0,11,12
 1375 1585 1375 1585 1321 1585 c 2,13,-1
 132 1585 l 2,14,15
 77 1585 77 1585 38 1546 c 0,16,17
 0 1508 0 1508 0 1453 c 1,18,-1
 0 1585 l 2,19,20
 0 1640 0 1640 38 1678 c 0,21,22
 77 1717 77 1717 132 1717 c 2,23,-1
 1585 1717 l 1,24,-1
 1717 1651 l 1,25,-1
 1783 1585 l 1,26,-1
 1849 1453 l 1,27,-1
 1849 0 l 1,28,-1
 1453 0 l 1,8,-1
132 1981 m 2,29,30
 77 1981 77 1981 38 2020 c 0,31,32
 0 2059 0 2059 0 2114 c 2,33,-1
 0 3963 l 2,34,35
 0 4018 0 4018 38 4057 c 0,36,37
 77 4096 77 4096 132 4096 c 2,38,-1
 528 4096 l 1,39,-1
 528 1981 l 1,40,-1
 132 1981 l 2,29,30
660 1981 m 1,41,-1
 660 2378 l 1,42,-1
 1189 2378 l 2,43,44
 1243 2378 1243 2378 1282 2417 c 0,45,46
 1321 2455 1321 2455 1321 2510 c 2,47,-1
 1321 4096 l 1,48,-1
 1585 4096 l 1,49,-1
 1585 2246 l 1,50,-1
 1519 2114 l 1,51,-1
 1453 2048 l 1,52,-1
 1321 1981 l 1,53,-1
 660 1981 l 1,41,-1
1717 2114 m 1,54,-1
 1717 4096 l 1,55,-1
 1849 4096 l 1,56,-1
 1849 2246 l 2,57,58
 1849 2191 1849 2191 1811 2152 c 0,59,60
 1772 2114 1772 2114 1717 2114 c 1,61,-1
 1717 2114 l 1,54,-1
EndSplineSet
EndChar

StartChar: b
Encoding: 98 98 49
Width: 2510
Flags: W
LayerCount: 2
Fore
SplineSet
660 0 m 1,0,-1
 660 396 l 1,1,-1
 1189 396 l 1,2,-1
 1189 0 l 1,3,-1
 660 0 l 1,0,-1
264 0 m 1,4,-1
 132 66 l 1,5,-1
 66 132 l 1,6,-1
 0 264 l 1,7,-1
 0 1453 l 1,8,-1
 264 1453 l 1,9,-1
 396 1387 l 1,10,-1
 462 1321 l 1,11,-1
 528 1189 l 1,12,-1
 528 0 l 1,13,-1
 264 0 l 1,4,-1
1321 0 m 1,14,-1
 1321 396 l 1,15,16
 1375 396 1375 396 1414 435 c 0,17,18
 1453 473 1453 473 1453 528 c 2,19,-1
 1453 1189 l 1,20,-1
 1519 1321 l 1,21,-1
 1585 1387 l 1,22,-1
 1717 1453 l 1,23,-1
 1849 1453 l 1,24,-1
 1849 264 l 1,25,-1
 1783 132 l 1,26,-1
 1717 66 l 1,27,-1
 1585 0 l 1,28,-1
 1321 0 l 1,14,-1
1981 264 m 1,29,-1
 1981 1453 l 1,30,-1
 2114 1453 l 1,31,-1
 2114 396 l 2,32,33
 2114 341 2114 341 2075 302 c 0,34,35
 2036 264 2036 264 1981 264 c 1,36,-1
 1981 264 l 1,29,-1
660 1585 m 1,37,-1
 660 1981 l 2,38,39
 660 2036 660 2036 699 2075 c 256,40,41
 738 2114 738 2114 792 2114 c 2,42,-1
 1321 2114 l 1,43,-1
 1321 1717 l 2,44,45
 1321 1662 1321 1662 1282 1624 c 0,46,47
 1243 1585 1243 1585 1189 1585 c 2,48,-1
 660 1585 l 1,37,-1
1981 2246 m 1,49,-1
 1981 3831 l 1,50,51
 2036 3831 2036 3831 2075 3793 c 0,52,53
 2114 3754 2114 3754 2114 3699 c 2,54,-1
 2114 2246 l 1,55,-1
 1981 2246 l 1,49,-1
0 2246 m 1,56,-1
 0 3831 l 1,57,-1
 66 3963 l 1,58,-1
 132 4029 l 1,59,-1
 264 4096 l 1,60,-1
 528 4096 l 1,61,-1
 528 2510 l 1,62,-1
 462 2378 l 1,63,-1
 396 2312 l 1,64,-1
 264 2246 l 1,65,-1
 0 2246 l 1,56,-1
660 3699 m 1,66,-1
 660 4096 l 1,67,-1
 1189 4096 l 1,68,-1
 1189 3699 l 1,69,-1
 660 3699 l 1,66,-1
1717 2246 m 1,70,-1
 1585 2312 l 1,71,-1
 1519 2378 l 1,72,-1
 1453 2510 l 1,73,-1
 1453 3567 l 2,74,75
 1453 3622 1453 3622 1414 3660 c 0,76,77
 1375 3699 1375 3699 1321 3699 c 1,78,-1
 1321 4096 l 1,79,-1
 1585 4096 l 1,80,-1
 1717 4029 l 1,81,-1
 1783 3963 l 1,82,-1
 1849 3831 l 1,83,-1
 1849 2246 l 1,84,-1
 1717 2246 l 1,70,-1
EndSplineSet
EndChar

StartChar: c
Encoding: 99 99 50
Width: 2510
Flags: W
LayerCount: 2
Fore
SplineSet
1981 0 m 1,0,-1
 1981 2246 l 1,1,2
 2036 2246 2036 2246 2075 2207 c 256,3,4
 2114 2168 2114 2168 2114 2114 c 2,5,-1
 2114 0 l 1,6,-1
 1981 0 l 1,0,-1
924 1585 m 2,7,8
 870 1585 870 1585 831 1624 c 0,9,10
 792 1662 792 1662 792 1717 c 2,11,-1
 792 2510 l 1,12,-1
 1057 2510 l 2,13,14
 1111 2510 1111 2510 1150 2471 c 0,15,16
 1189 2433 1189 2433 1189 2378 c 2,17,-1
 1189 1585 l 1,18,-1
 924 1585 l 2,7,8
1453 0 m 1,19,-1
 1453 2510 l 1,20,-1
 1585 2510 l 1,21,-1
 1717 2444 l 1,22,-1
 1783 2378 l 1,23,-1
 1849 2246 l 1,24,-1
 1849 0 l 1,25,-1
 1453 0 l 1,19,-1
264 1585 m 1,26,-1
 132 1651 l 1,27,-1
 66 1717 l 1,28,-1
 0 1849 l 1,29,-1
 0 4096 l 1,30,-1
 528 4096 l 1,31,-1
 528 1585 l 1,32,-1
 264 1585 l 1,26,-1
EndSplineSet
EndChar

StartChar: Eth
Encoding: 208 208 51
Width: 3038
Flags: W
LayerCount: 2
Fore
SplineSet
264 0 m 1,0,-1
 132 66 l 1,1,-1
 66 132 l 1,2,-1
 0 264 l 1,3,-1
 0 1849 l 1,4,5
 0 1795 0 1795 38 1756 c 0,6,7
 77 1717 77 1717 132 1717 c 2,8,-1
 528 1717 l 1,9,-1
 528 528 l 2,10,11
 528 473 528 473 567 435 c 0,12,13
 605 396 605 396 660 396 c 2,14,-1
 2642 396 l 1,15,-1
 2642 0 l 1,16,-1
 264 0 l 1,0,-1
1321 1717 m 1,17,-1
 1321 1783 l 2,18,19
 1321 1811 1321 1811 1301 1830 c 0,20,21
 1282 1849 1282 1849 1255 1849 c 2,22,-1
 792 1849 l 1,23,-1
 792 2246 l 1,24,-1
 1453 2246 l 1,25,-1
 1453 1717 l 1,26,-1
 1321 1717 l 1,17,-1
132 1849 m 2,27,28
 77 1849 77 1849 38 1888 c 0,29,30
 0 1927 0 1927 0 1981 c 2,31,-1
 0 3831 l 1,32,-1
 66 3963 l 1,33,-1
 132 4029 l 1,34,-1
 264 4096 l 1,35,-1
 528 4096 l 1,36,-1
 528 2312 l 2,37,38
 528 2284 528 2284 547 2265 c 0,39,40
 567 2246 567 2246 594 2246 c 2,41,-1
 660 2246 l 1,42,-1
 660 1849 l 1,43,-1
 132 1849 l 2,27,28
660 3699 m 1,44,-1
 660 4096 l 1,45,-1
 1849 4096 l 1,46,-1
 1849 3699 l 1,47,-1
 660 3699 l 1,44,-1
1981 528 m 1,48,-1
 1981 4096 l 1,49,-1
 2378 4096 l 1,50,-1
 2378 660 l 2,51,52
 2378 605 2378 605 2339 567 c 0,53,54
 2300 528 2300 528 2246 528 c 2,55,-1
 1981 528 l 1,48,-1
2510 528 m 1,56,-1
 2510 4096 l 1,57,-1
 2642 4096 l 1,58,-1
 2642 660 l 2,59,60
 2642 605 2642 605 2603 567 c 0,61,62
 2565 528 2565 528 2510 528 c 1,63,-1
 2510 528 l 1,56,-1
EndSplineSet
EndChar

StartChar: eth
Encoding: 240 240 52
Width: 3038
Flags: W
LayerCount: 2
Fore
SplineSet
264 0 m 1,0,-1
 132 66 l 1,1,-1
 66 132 l 1,2,-1
 0 264 l 1,3,-1
 0 1849 l 1,4,5
 0 1795 0 1795 38 1756 c 0,6,7
 77 1717 77 1717 132 1717 c 2,8,-1
 528 1717 l 1,9,-1
 528 528 l 2,10,11
 528 473 528 473 567 435 c 0,12,13
 605 396 605 396 660 396 c 2,14,-1
 2642 396 l 1,15,-1
 2642 0 l 1,16,-1
 264 0 l 1,0,-1
1321 1717 m 1,17,-1
 1321 1783 l 2,18,19
 1321 1811 1321 1811 1301 1830 c 0,20,21
 1282 1849 1282 1849 1255 1849 c 2,22,-1
 792 1849 l 1,23,-1
 792 2246 l 1,24,-1
 1453 2246 l 1,25,-1
 1453 1717 l 1,26,-1
 1321 1717 l 1,17,-1
132 1849 m 2,27,28
 77 1849 77 1849 38 1888 c 0,29,30
 0 1927 0 1927 0 1981 c 2,31,-1
 0 3831 l 1,32,-1
 66 3963 l 1,33,-1
 132 4029 l 1,34,-1
 264 4096 l 1,35,-1
 528 4096 l 1,36,-1
 528 2312 l 2,37,38
 528 2284 528 2284 547 2265 c 0,39,40
 567 2246 567 2246 594 2246 c 2,41,-1
 660 2246 l 1,42,-1
 660 1849 l 1,43,-1
 132 1849 l 2,27,28
660 3699 m 1,44,-1
 660 4096 l 1,45,-1
 1849 4096 l 1,46,-1
 1849 3699 l 1,47,-1
 660 3699 l 1,44,-1
1981 528 m 1,48,-1
 1981 4096 l 1,49,-1
 2378 4096 l 1,50,-1
 2378 660 l 2,51,52
 2378 605 2378 605 2339 567 c 0,53,54
 2300 528 2300 528 2246 528 c 2,55,-1
 1981 528 l 1,48,-1
2510 528 m 1,56,-1
 2510 4096 l 1,57,-1
 2642 4096 l 1,58,-1
 2642 660 l 2,59,60
 2642 605 2642 605 2603 567 c 0,61,62
 2565 528 2565 528 2510 528 c 1,63,-1
 2510 528 l 1,56,-1
EndSplineSet
EndChar

StartChar: quotedblleft
Encoding: 8220 8220 53
Width: 1057
Flags: W
LayerCount: 2
Fore
SplineSet
0 3567 m 1,0,-1
 0 4096 l 1,1,2
 54 4096 54 4096 93 4057 c 256,3,4
 132 4018 132 4018 132 3963 c 2,5,-1
 132 3699 l 1,6,7
 77 3699 77 3699 38 3660 c 0,8,9
 0 3622 0 3622 0 3567 c 1,10,-1
 0 3567 l 1,0,-1
0 3435 m 1,11,12
 0 3490 0 3490 38 3528 c 0,13,14
 77 3567 77 3567 132 3567 c 2,15,-1
 396 3567 l 1,16,-1
 396 4096 l 1,17,-1
 660 4096 l 1,18,-1
 660 3435 l 1,19,-1
 0 3435 l 1,11,12
EndSplineSet
EndChar

StartChar: quotedblright
Encoding: 8221 8221 54
Width: 1057
Flags: W
LayerCount: 2
Fore
SplineSet
0 3435 m 1,0,-1
 0 4096 l 1,1,-1
 264 4096 l 1,2,-1
 264 3567 l 1,3,-1
 528 3567 l 2,4,5
 583 3567 583 3567 621 3528 c 0,6,7
 660 3490 660 3490 660 3435 c 1,8,-1
 0 3435 l 1,0,-1
660 3567 m 1,9,10
 660 3622 660 3622 621 3660 c 0,11,12
 583 3699 583 3699 528 3699 c 1,13,-1
 528 3963 l 2,14,15
 528 4018 528 4018 567 4057 c 0,16,17
 605 4096 605 4096 660 4096 c 1,18,-1
 660 3567 l 1,19,-1
 660 3567 l 1,9,10
EndSplineSet
EndChar

StartChar: d
Encoding: 100 100 55
Width: 2642
Flags: W
LayerCount: 2
Fore
SplineSet
528 1849 m 1,0,-1
 528 2378 l 1,1,-1
 1057 2378 l 1,2,-1
 1057 1981 l 1,3,-1
 792 1981 l 2,4,5
 738 1981 738 1981 699 1943 c 0,6,7
 660 1904 660 1904 660 1849 c 1,8,-1
 528 1849 l 1,0,-1
1321 0 m 1,9,-1
 1321 1849 l 2,10,11
 1321 1904 1321 1904 1282 1943 c 0,12,13
 1243 1981 1243 1981 1189 1981 c 1,14,-1
 1189 2378 l 1,15,-1
 1585 2378 l 2,16,17
 1640 2378 1640 2378 1678 2339 c 0,18,19
 1717 2300 1717 2300 1717 2246 c 2,20,-1
 1717 0 l 1,21,-1
 1321 0 l 1,9,-1
2114 2774 m 1,22,-1
 2114 3831 l 1,23,24
 2168 3831 2168 3831 2207 3793 c 0,25,26
 2246 3754 2246 3754 2246 3699 c 2,27,-1
 2246 2906 l 2,28,29
 2246 2852 2246 2852 2207 2813 c 256,30,31
 2168 2774 2168 2774 2114 2774 c 1,32,-1
 2114 2774 l 1,22,-1
1453 2510 m 1,33,-1
 1453 3435 l 2,34,35
 1453 3490 1453 3490 1414 3528 c 0,36,37
 1375 3567 1375 3567 1321 3567 c 2,38,-1
 0 3567 l 1,39,-1
 0 4029 l 2,40,41
 0 4057 0 4057 19 4076 c 0,42,43
 38 4096 38 4096 66 4096 c 2,44,-1
 1717 4096 l 1,45,-1
 1849 4029 l 1,46,-1
 1915 3963 l 1,47,-1
 1981 3831 l 1,48,-1
 1981 2774 l 1,49,-1
 1915 2642 l 1,50,-1
 1849 2576 l 1,51,-1
 1717 2510 l 1,52,-1
 1453 2510 l 1,33,-1
EndSplineSet
EndChar

StartChar: e
Encoding: 101 101 56
Width: 3567
Flags: W
LayerCount: 2
Fore
SplineSet
1189 396 m 1,0,-1
 1189 3435 l 2,1,2
 1189 3490 1189 3490 1227 3528 c 0,3,4
 1266 3567 1266 3567 1321 3567 c 2,5,-1
 1585 3567 l 1,6,-1
 1585 660 l 1,7,-1
 1519 528 l 1,8,-1
 1453 462 l 1,9,-1
 1321 396 l 1,10,-1
 1189 396 l 1,0,-1
2246 0 m 1,11,-1
 2114 66 l 1,12,-1
 2048 132 l 1,13,-1
 1981 264 l 1,14,-1
 1981 3567 l 1,15,-1
 2378 3567 l 1,16,-1
 2378 0 l 1,17,-1
 2246 0 l 1,11,-1
2510 0 m 1,18,-1
 2510 3567 l 1,19,-1
 2642 3567 l 1,20,-1
 2642 0 l 1,21,-1
 2510 0 l 1,18,-1
264 0 m 1,22,-1
 132 66 l 1,23,-1
 66 132 l 1,24,-1
 0 264 l 1,25,-1
 0 4096 l 1,26,-1
 528 4096 l 1,27,-1
 528 528 l 2,28,29
 528 473 528 473 567 435 c 0,30,31
 605 396 605 396 660 396 c 2,32,-1
 1057 396 l 1,33,-1
 1057 264 l 1,34,-1
 990 132 l 1,35,-1
 924 66 l 1,36,-1
 792 0 l 1,37,-1
 264 0 l 1,22,-1
1189 3567 m 1,38,-1
 1189 3963 l 2,39,40
 1189 4018 1189 4018 1227 4057 c 0,41,42
 1266 4096 1266 4096 1321 4096 c 2,43,-1
 3171 4096 l 1,44,-1
 3171 3699 l 1,45,-1
 1321 3699 l 2,46,47
 1266 3699 1266 3699 1227 3660 c 0,48,49
 1189 3622 1189 3622 1189 3567 c 1,50,-1
 1189 3567 l 1,38,-1
EndSplineSet
EndChar

StartChar: f
Encoding: 102 102 57
Width: 3038
Flags: W
LayerCount: 2
Fore
SplineSet
1189 528 m 1,0,-1
 1189 1321 l 1,1,-1
 1585 1321 l 1,2,-1
 1585 528 l 1,3,-1
 1189 528 l 1,0,-1
264 0 m 1,4,-1
 132 66 l 1,5,-1
 66 132 l 1,6,-1
 0 264 l 1,7,-1
 0 1453 l 1,8,9
 0 1398 0 1398 38 1360 c 0,10,11
 77 1321 77 1321 132 1321 c 2,12,-1
 528 1321 l 1,13,-1
 528 528 l 2,14,15
 528 473 528 473 567 435 c 0,16,17
 605 396 605 396 660 396 c 2,18,-1
 2642 396 l 1,19,-1
 2642 264 l 1,20,21
 2587 264 2587 264 2549 225 c 0,22,23
 2510 186 2510 186 2510 132 c 2,24,-1
 2510 0 l 1,25,-1
 264 0 l 1,4,-1
132 1453 m 2,26,27
 77 1453 77 1453 38 1492 c 0,28,29
 0 1530 0 1530 0 1585 c 2,30,-1
 0 1849 l 1,31,-1
 1981 1849 l 1,32,-1
 1981 1453 l 1,33,-1
 132 1453 l 2,26,27
2114 1453 m 1,34,-1
 2114 2114 l 2,35,36
 2114 2168 2114 2168 2152 2207 c 0,37,38
 2191 2246 2191 2246 2246 2246 c 2,39,-1
 2378 2246 l 1,40,-1
 2378 1585 l 2,41,42
 2378 1530 2378 1530 2339 1492 c 0,43,44
 2300 1453 2300 1453 2246 1453 c 2,45,-1
 2114 1453 l 1,34,-1
2510 1585 m 1,46,-1
 2510 2246 l 1,47,-1
 2642 2246 l 1,48,-1
 2642 1717 l 2,49,50
 2642 1662 2642 1662 2603 1624 c 0,51,52
 2565 1585 2565 1585 2510 1585 c 1,53,-1
 2510 1585 l 1,46,-1
1189 1981 m 1,54,-1
 1189 3963 l 2,55,56
 1189 4018 1189 4018 1227 4057 c 0,57,58
 1266 4096 1266 4096 1321 4096 c 2,59,-1
 1717 4096 l 1,60,-1
 1717 3699 l 1,61,62
 1662 3699 1662 3699 1624 3660 c 0,63,64
 1585 3622 1585 3622 1585 3567 c 2,65,-1
 1585 1981 l 1,66,-1
 1189 1981 l 1,54,-1
EndSplineSet
EndChar

StartChar: g
Encoding: 103 103 58
Width: 2510
Flags: W
LayerCount: 2
Fore
SplineSet
1981 396 m 1,0,-1
 1981 3699 l 1,1,2
 2036 3699 2036 3699 2075 3660 c 0,3,4
 2114 3622 2114 3622 2114 3567 c 2,5,-1
 2114 528 l 2,6,7
 2114 473 2114 473 2075 435 c 0,8,9
 2036 396 2036 396 1981 396 c 1,10,-1
 1981 396 l 1,0,-1
924 2774 m 1,11,-1
 924 4096 l 1,12,-1
 1189 4096 l 2,13,14
 1243 4096 1243 4096 1282 4057 c 256,15,16
 1321 4018 1321 4018 1321 3963 c 2,17,-1
 1321 2774 l 1,18,-1
 924 2774 l 1,11,-1
132 0 m 2,19,20
 77 0 77 0 38 38 c 0,21,22
 0 77 0 77 0 132 c 2,23,-1
 0 4096 l 1,24,-1
 528 4096 l 1,25,-1
 528 396 l 1,26,-1
 1585 396 l 1,27,-1
 1585 3633 l 2,28,29
 1585 3660 1585 3660 1566 3680 c 0,30,31
 1546 3699 1546 3699 1519 3699 c 2,32,-1
 1453 3699 l 1,33,-1
 1453 3963 l 2,34,35
 1453 4018 1453 4018 1414 4057 c 256,36,37
 1375 4096 1375 4096 1321 4096 c 1,38,-1
 1783 4096 l 2,39,40
 1811 4096 1811 4096 1830 4076 c 0,41,42
 1849 4057 1849 4057 1849 4029 c 2,43,-1
 1849 264 l 1,44,-1
 1783 132 l 1,45,-1
 1717 66 l 1,46,-1
 1585 0 l 1,47,-1
 132 0 l 2,19,20
EndSplineSet
EndChar

StartChar: h
Encoding: 104 104 59
Width: 2510
Flags: W
LayerCount: 2
Fore
SplineSet
0 0 m 1,0,-1
 0 528 l 1,1,-1
 132 528 l 1,2,3
 132 473 132 473 170 435 c 0,4,5
 209 396 209 396 264 396 c 2,6,-1
 1849 396 l 1,7,-1
 1849 132 l 2,8,9
 1849 77 1849 77 1811 38 c 0,10,11
 1772 0 1772 0 1717 0 c 2,12,-1
 0 0 l 1,0,-1
1981 132 m 1,13,-1
 1981 660 l 1,14,-1
 2114 660 l 1,15,-1
 2114 264 l 2,16,17
 2114 209 2114 209 2075 170 c 0,18,19
 2036 132 2036 132 1981 132 c 1,20,-1
 1981 132 l 1,13,-1
396 1585 m 1,21,-1
 396 1981 l 2,22,23
 396 2036 396 2036 435 2075 c 0,24,25
 473 2114 473 2114 528 2114 c 2,26,-1
 1585 2114 l 1,27,-1
 1585 1717 l 2,28,29
 1585 1662 1585 1662 1546 1624 c 0,30,31
 1508 1585 1508 1585 1453 1585 c 2,32,-1
 396 1585 l 1,21,-1
1981 3435 m 1,33,-1
 1981 3963 l 1,34,35
 2036 3963 2036 3963 2075 3925 c 0,36,37
 2114 3886 2114 3886 2114 3831 c 2,38,-1
 2114 3435 l 1,39,-1
 1981 3435 l 1,33,-1
0 3435 m 1,40,-1
 0 3963 l 2,41,42
 0 4018 0 4018 38 4057 c 0,43,44
 77 4096 77 4096 132 4096 c 2,45,-1
 1717 4096 l 2,46,47
 1772 4096 1772 4096 1811 4057 c 0,48,49
 1849 4018 1849 4018 1849 3963 c 2,50,-1
 1849 3567 l 1,51,-1
 264 3567 l 2,52,53
 209 3567 209 3567 170 3528 c 0,54,55
 132 3490 132 3490 132 3435 c 1,56,-1
 0 3435 l 1,40,-1
EndSplineSet
EndChar

StartChar: i
Encoding: 105 105 60
Width: 1585
Flags: W
LayerCount: 2
Fore
SplineSet
1057 0 m 1,0,-1
 1057 1057 l 1,1,2
 1111 1057 1111 1057 1150 1018 c 256,3,4
 1189 979 1189 979 1189 924 c 2,5,-1
 1189 0 l 1,6,-1
 1057 0 l 1,0,-1
0 3038 m 1,7,-1
 0 3831 l 1,8,-1
 66 3963 l 1,9,-1
 132 4029 l 1,10,-1
 264 4096 l 1,11,-1
 528 4096 l 1,12,-1
 528 3303 l 1,13,-1
 462 3171 l 1,14,-1
 396 3105 l 1,15,-1
 264 3038 l 1,16,-1
 0 3038 l 1,7,-1
660 0 m 1,17,-1
 660 4096 l 1,18,-1
 924 4096 l 1,19,-1
 924 0 l 1,20,-1
 660 0 l 1,17,-1
1057 1189 m 1,21,-1
 1057 4096 l 1,22,23
 1111 4096 1111 4096 1150 4057 c 256,24,25
 1189 4018 1189 4018 1189 3963 c 2,26,-1
 1189 1189 l 1,27,-1
 1057 1189 l 1,21,-1
EndSplineSet
EndChar

StartChar: j
Encoding: 106 106 61
Width: 2378
Flags: W
LayerCount: 2
Fore
SplineSet
0 2510 m 1,0,-1
 0 3303 l 1,1,-1
 66 3435 l 1,2,-1
 132 3501 l 1,3,-1
 264 3567 l 1,4,-1
 528 3567 l 1,5,-1
 528 2774 l 1,6,-1
 462 2642 l 1,7,-1
 396 2576 l 1,8,-1
 264 2510 l 1,9,-1
 0 2510 l 1,0,-1
660 3038 m 1,10,-1
 660 3567 l 1,11,-1
 924 3567 l 2,12,13
 979 3567 979 3567 1018 3606 c 0,14,15
 1057 3644 1057 3644 1057 3699 c 1,16,-1
 1189 3699 l 1,17,-1
 1189 3038 l 1,18,-1
 660 3038 l 1,10,-1
0 0 m 1,19,-1
 0 396 l 1,20,-1
 1189 396 l 2,21,22
 1243 396 1243 396 1282 435 c 0,23,24
 1321 473 1321 473 1321 528 c 2,25,-1
 1321 4096 l 1,26,-1
 1717 4096 l 1,27,-1
 1717 924 l 1,28,-1
 1585 924 l 1,29,-1
 1585 792 l 1,30,-1
 1717 792 l 1,31,-1
 1717 660 l 1,32,-1
 1585 660 l 1,33,-1
 1585 528 l 1,34,-1
 1717 528 l 1,35,-1
 1717 264 l 1,36,-1
 1651 132 l 1,37,-1
 1585 66 l 1,38,-1
 1453 0 l 1,39,-1
 0 0 l 1,19,-1
1849 2114 m 1,40,-1
 1849 4096 l 1,41,-1
 1981 4096 l 1,42,-1
 1981 2246 l 2,43,44
 1981 2191 1981 2191 1943 2152 c 0,45,46
 1904 2114 1904 2114 1849 2114 c 1,47,-1
 1849 2114 l 1,40,-1
EndSplineSet
EndChar

StartChar: k
Encoding: 107 107 62
Width: 2378
Flags: W
LayerCount: 2
Fore
SplineSet
132 0 m 2,0,1
 77 0 77 0 38 38 c 0,2,3
 0 77 0 77 0 132 c 2,4,-1
 0 396 l 1,5,-1
 1981 396 l 1,6,-1
 1981 0 l 1,7,-1
 132 0 l 2,0,1
132 3435 m 2,8,9
 77 3435 77 3435 38 3474 c 0,10,11
 0 3512 0 3512 0 3567 c 2,12,-1
 0 4096 l 1,13,-1
 1189 4096 l 1,14,-1
 1189 3699 l 1,15,-1
 660 3699 l 2,16,17
 605 3699 605 3699 567 3660 c 0,18,19
 528 3622 528 3622 528 3567 c 2,20,-1
 528 3435 l 1,21,-1
 132 3435 l 2,8,9
1321 528 m 1,22,-1
 1321 4096 l 1,23,-1
 1717 4096 l 1,24,-1
 1717 792 l 1,25,-1
 1651 660 l 1,26,-1
 1585 594 l 1,27,-1
 1453 528 l 1,28,-1
 1321 528 l 1,22,-1
1849 528 m 1,29,-1
 1849 4096 l 1,30,-1
 1981 4096 l 1,31,-1
 1981 660 l 2,32,33
 1981 605 1981 605 1943 567 c 0,34,35
 1904 528 1904 528 1849 528 c 1,36,-1
 1849 528 l 1,29,-1
EndSplineSet
EndChar

StartChar: l
Encoding: 108 108 63
Width: 1585
Flags: W
LayerCount: 2
Fore
SplineSet
264 0 m 1,0,-1
 132 66 l 1,1,-1
 66 132 l 1,2,-1
 0 264 l 1,3,-1
 0 1057 l 1,4,-1
 264 1057 l 1,5,-1
 396 990 l 1,6,-1
 462 924 l 1,7,-1
 528 792 l 1,8,-1
 528 0 l 1,9,-1
 264 0 l 1,0,-1
1057 0 m 1,10,-1
 1057 2906 l 1,11,-1
 1189 2906 l 1,12,-1
 1189 132 l 2,13,14
 1189 77 1189 77 1150 38 c 0,15,16
 1111 0 1111 0 1057 0 c 1,17,-1
 1057 0 l 1,10,-1
660 0 m 1,18,-1
 660 4096 l 1,19,-1
 924 4096 l 1,20,-1
 924 0 l 1,21,-1
 660 0 l 1,18,-1
1057 3038 m 1,22,-1
 1057 4096 l 1,23,-1
 1189 4096 l 1,24,-1
 1189 3171 l 2,25,26
 1189 3116 1189 3116 1150 3077 c 256,27,28
 1111 3038 1111 3038 1057 3038 c 1,29,-1
 1057 3038 l 1,22,-1
EndSplineSet
EndChar

StartChar: m
Encoding: 109 109 64
Width: 2642
Flags: W
LayerCount: 2
Fore
SplineSet
132 0 m 2,0,1
 77 0 77 0 38 38 c 0,2,3
 0 77 0 77 0 132 c 2,4,-1
 0 3303 l 1,5,-1
 66 3435 l 1,6,-1
 132 3501 l 1,7,-1
 264 3567 l 1,8,-1
 528 3567 l 1,9,-1
 528 528 l 2,10,11
 528 473 528 473 567 435 c 0,12,13
 605 396 605 396 660 396 c 2,14,-1
 1981 396 l 2,15,16
 2036 396 2036 396 2075 435 c 0,17,18
 2114 473 2114 473 2114 528 c 1,19,-1
 2246 528 l 1,20,-1
 2246 0 l 1,21,-1
 132 0 l 2,0,1
1849 3435 m 1,22,23
 1849 3490 1849 3490 1811 3528 c 0,24,25
 1772 3567 1772 3567 1717 3567 c 2,26,-1
 660 3567 l 1,27,-1
 660 3831 l 1,28,-1
 726 3963 l 1,29,-1
 792 4029 l 1,30,-1
 924 4096 l 1,31,-1
 1981 4096 l 1,32,-1
 1981 3435 l 1,33,-1
 1849 3435 l 1,22,23
2114 3435 m 1,34,-1
 2114 4096 l 1,35,-1
 2246 4096 l 1,36,-1
 2246 3435 l 1,37,-1
 2114 3435 l 1,34,-1
EndSplineSet
EndChar

StartChar: n
Encoding: 110 110 65
Width: 3699
Flags: W
LayerCount: 2
Fore
SplineSet
3171 0 m 1,0,-1
 3171 3435 l 1,1,2
 3225 3435 3225 3435 3264 3396 c 256,3,4
 3303 3357 3303 3357 3303 3303 c 2,5,-1
 3303 0 l 1,6,-1
 3171 0 l 1,0,-1
1453 528 m 1,7,-1
 1453 3303 l 1,8,-1
 1519 3435 l 1,9,-1
 1585 3501 l 1,10,-1
 1717 3567 l 1,11,-1
 1849 3567 l 1,12,-1
 1849 792 l 1,13,-1
 1783 660 l 1,14,-1
 1717 594 l 1,15,-1
 1585 528 l 1,16,-1
 1453 528 l 1,7,-1
2774 0 m 1,17,-1
 2774 3567 l 1,18,-1
 2906 3567 l 2,19,20
 2961 3567 2961 3567 3000 3528 c 0,21,22
 3038 3490 3038 3490 3038 3435 c 2,23,-1
 3038 0 l 1,24,-1
 2774 0 l 1,17,-1
264 0 m 1,25,-1
 132 66 l 1,26,-1
 66 132 l 1,27,-1
 0 264 l 1,28,-1
 0 3831 l 1,29,-1
 66 3963 l 1,30,-1
 132 4029 l 1,31,-1
 264 4096 l 1,32,-1
 792 4096 l 1,33,-1
 792 3567 l 1,34,-1
 660 3567 l 2,35,36
 605 3567 605 3567 567 3528 c 0,37,38
 528 3490 528 3490 528 3435 c 2,39,-1
 528 528 l 2,40,41
 528 473 528 473 567 435 c 0,42,43
 605 396 605 396 660 396 c 2,44,-1
 1717 396 l 2,45,46
 1772 396 1772 396 1811 435 c 0,47,48
 1849 473 1849 473 1849 528 c 1,49,-1
 1849 132 l 2,50,51
 1849 77 1849 77 1811 38 c 0,52,53
 1772 0 1772 0 1717 0 c 2,54,-1
 264 0 l 1,25,-1
2510 2246 m 2,55,56
 2455 2246 2455 2246 2417 2284 c 0,57,58
 2378 2323 2378 2323 2378 2378 c 2,59,-1
 2378 3567 l 2,60,61
 2378 3622 2378 3622 2339 3660 c 0,62,63
 2300 3699 2300 3699 2246 3699 c 2,64,-1
 1849 3699 l 1,65,-1
 1849 3963 l 2,66,67
 1849 4018 1849 4018 1888 4057 c 256,68,69
 1927 4096 1927 4096 1981 4096 c 2,70,-1
 2378 4096 l 1,71,-1
 2510 4029 l 1,72,-1
 2576 3963 l 1,73,-1
 2642 3831 l 1,74,-1
 2642 2246 l 1,75,-1
 2510 2246 l 2,55,56
EndSplineSet
EndChar

StartChar: o
Encoding: 111 111 66
Width: 3038
Flags: W
LayerCount: 2
Fore
SplineSet
2510 0 m 1,0,-1
 2510 2246 l 1,1,2
 2565 2246 2565 2246 2603 2207 c 0,3,4
 2642 2168 2642 2168 2642 2114 c 2,5,-1
 2642 66 l 2,6,7
 2642 38 2642 38 2623 19 c 0,8,9
 2603 0 2603 0 2576 0 c 2,10,-1
 2510 0 l 1,0,-1
66 0 m 2,11,12
 38 0 38 0 19 19 c 256,13,14
 0 38 0 38 0 66 c 2,15,-1
 0 2642 l 1,16,-1
 66 2774 l 1,17,-1
 132 2840 l 1,18,-1
 264 2906 l 1,19,-1
 528 2906 l 1,20,-1
 528 462 l 2,21,22
 528 435 528 435 547 415 c 0,23,24
 567 396 567 396 594 396 c 2,25,-1
 2246 396 l 2,26,27
 2300 396 2300 396 2339 435 c 0,28,29
 2378 473 2378 473 2378 528 c 1,30,-1
 2378 66 l 2,31,32
 2378 38 2378 38 2359 19 c 0,33,34
 2339 0 2339 0 2312 0 c 2,35,-1
 66 0 l 2,11,12
660 528 m 1,36,-1
 660 3831 l 1,37,-1
 726 3963 l 1,38,-1
 792 4029 l 1,39,-1
 924 4096 l 1,40,-1
 1057 4096 l 1,41,-1
 1057 660 l 1,42,-1
 1981 660 l 2,43,44
 2036 660 2036 660 2075 699 c 256,45,46
 2114 738 2114 738 2114 792 c 2,47,-1
 2114 2378 l 1,48,-1
 2246 2378 l 2,49,50
 2301 2378 2301 2378 2339 2339 c 0,51,52
 2378 2300 2378 2300 2378 2246 c 2,53,-1
 2378 792 l 1,54,-1
 2312 660 l 1,55,-1
 2246 594 l 1,56,-1
 2114 528 l 1,57,-1
 660 528 l 1,36,-1
1189 3699 m 1,58,-1
 1189 4096 l 1,59,-1
 1585 4096 l 1,60,-1
 1585 3699 l 1,61,-1
 1189 3699 l 1,58,-1
1717 792 m 1,62,-1
 1717 4096 l 1,63,-1
 1849 4029 l 1,64,-1
 1915 3963 l 1,65,-1
 1981 3831 l 1,66,-1
 1981 924 l 2,67,68
 1981 870 1981 870 1943 831 c 0,69,70
 1904 792 1904 792 1849 792 c 2,71,-1
 1717 792 l 1,62,-1
EndSplineSet
EndChar

StartChar: p
Encoding: 112 112 67
Width: 2774
Flags: W
LayerCount: 2
Fore
SplineSet
1717 528 m 1,0,-1
 1717 3435 l 2,1,2
 1717 3490 1717 3490 1756 3528 c 0,3,4
 1795 3567 1795 3567 1849 3567 c 2,5,-1
 2114 3567 l 1,6,-1
 2114 792 l 1,7,-1
 2048 660 l 1,8,-1
 1981 594 l 1,9,-1
 1849 528 l 1,10,-1
 1717 528 l 1,0,-1
264 0 m 1,11,-1
 132 66 l 1,12,-1
 66 132 l 1,13,-1
 0 264 l 1,14,-1
 0 3831 l 1,15,-1
 66 3963 l 1,16,-1
 132 4029 l 1,17,-1
 264 4096 l 1,18,-1
 660 4096 l 1,19,-1
 660 3699 l 1,20,21
 605 3699 605 3699 567 3660 c 0,22,23
 528 3622 528 3622 528 3567 c 2,24,-1
 528 528 l 2,25,26
 528 473 528 473 567 435 c 0,27,28
 605 396 605 396 660 396 c 2,29,-1
 1981 396 l 2,30,31
 2036 396 2036 396 2075 435 c 0,32,33
 2114 473 2114 473 2114 528 c 1,34,-1
 2114 132 l 2,35,36
 2114 77 2114 77 2075 38 c 0,37,38
 2036 0 2036 0 1981 0 c 2,39,-1
 264 0 l 1,11,-1
792 2642 m 1,40,-1
 792 4096 l 1,41,-1
 1189 4096 l 1,42,-1
 1189 2708 l 2,43,44
 1189 2681 1189 2681 1169 2661 c 0,45,46
 1150 2642 1150 2642 1123 2642 c 2,47,-1
 792 2642 l 1,40,-1
1849 3699 m 2,48,49
 1794 3699 1794 3699 1756 3738 c 0,50,51
 1717 3777 1717 3777 1717 3831 c 2,52,-1
 1717 4096 l 1,53,-1
 2114 4096 l 1,54,-1
 2114 3699 l 1,55,-1
 1849 3699 l 2,48,49
2246 3303 m 1,56,-1
 2246 4096 l 1,57,-1
 2378 4096 l 1,58,-1
 2378 3303 l 1,59,-1
 2246 3303 l 1,56,-1
EndSplineSet
EndChar

StartChar: q
Encoding: 113 113 68
Width: 2774
Flags: W
LayerCount: 2
Fore
SplineSet
1585 0 m 1,0,-1
 1585 528 l 1,1,-1
 1717 528 l 1,2,-1
 1717 66 l 2,3,4
 1717 38 1717 38 1698 19 c 0,5,6
 1678 0 1678 0 1651 0 c 2,7,-1
 1585 0 l 1,0,-1
264 0 m 1,8,-1
 132 66 l 1,9,-1
 66 132 l 1,10,-1
 0 264 l 1,11,-1
 0 3831 l 1,12,-1
 66 3963 l 1,13,-1
 132 4029 l 1,14,-1
 264 4096 l 1,15,-1
 660 4096 l 1,16,-1
 660 3699 l 1,17,18
 605 3699 605 3699 567 3660 c 0,19,20
 528 3622 528 3622 528 3567 c 2,21,-1
 528 528 l 2,22,23
 528 473 528 473 567 435 c 0,24,25
 605 396 605 396 660 396 c 2,26,-1
 1453 396 l 1,27,-1
 1453 66 l 2,28,29
 1453 38 1453 38 1434 19 c 0,30,31
 1414 0 1414 0 1387 0 c 2,32,-1
 264 0 l 1,8,-1
792 3699 m 1,33,-1
 792 4096 l 1,34,-1
 1585 4096 l 1,35,-1
 1585 3699 l 1,36,-1
 792 3699 l 1,33,-1
1717 1585 m 1,37,-1
 1717 4096 l 1,38,-1
 2114 4096 l 1,39,-1
 2114 1849 l 1,40,-1
 2048 1717 l 1,41,-1
 1981 1651 l 1,42,-1
 1849 1585 l 1,43,-1
 1717 1585 l 1,37,-1
2246 1981 m 1,44,-1
 2246 4096 l 1,45,-1
 2378 4096 l 1,46,-1
 2378 2114 l 2,47,48
 2378 2059 2378 2059 2339 2020 c 256,49,50
 2300 1981 2300 1981 2246 1981 c 1,51,-1
 2246 1981 l 1,44,-1
EndSplineSet
EndChar

StartChar: r
Encoding: 114 114 69
Width: 2642
Flags: W
LayerCount: 2
Fore
SplineSet
1057 0 m 1,0,-1
 1057 2246 l 2,1,2
 1057 2300 1057 2300 1095 2339 c 0,3,4
 1134 2378 1134 2378 1189 2378 c 2,5,-1
 1717 2378 l 1,6,-1
 1717 2114 l 2,7,8
 1717 2059 1717 2059 1678 2020 c 0,9,10
 1640 1981 1640 1981 1585 1981 c 256,11,12
 1530 1981 1530 1981 1492 1943 c 0,13,14
 1453 1904 1453 1904 1453 1849 c 2,15,-1
 1453 0 l 1,16,-1
 1057 0 l 1,0,-1
2114 2774 m 1,17,-1
 2114 3831 l 1,18,19
 2168 3831 2168 3831 2207 3793 c 0,20,21
 2246 3754 2246 3754 2246 3699 c 2,22,-1
 2246 2906 l 2,23,24
 2246 2852 2246 2852 2207 2813 c 256,25,26
 2168 2774 2168 2774 2114 2774 c 1,27,-1
 2114 2774 l 1,17,-1
1453 2510 m 1,28,-1
 1453 3435 l 2,29,30
 1453 3490 1453 3490 1414 3528 c 0,31,32
 1375 3567 1375 3567 1321 3567 c 2,33,-1
 0 3567 l 1,34,-1
 0 4029 l 2,35,36
 0 4057 0 4057 19 4076 c 0,37,38
 38 4096 38 4096 66 4096 c 2,39,-1
 1717 4096 l 1,40,-1
 1849 4029 l 1,41,-1
 1915 3963 l 1,42,-1
 1981 3831 l 1,43,-1
 1981 2774 l 1,44,-1
 1915 2642 l 1,45,-1
 1849 2576 l 1,46,-1
 1717 2510 l 1,47,-1
 1453 2510 l 1,28,-1
EndSplineSet
EndChar

StartChar: s
Encoding: 115 115 70
Width: 2774
Flags: W
LayerCount: 2
Fore
SplineSet
0 264 m 1,0,-1
 0 792 l 1,1,-1
 132 792 l 1,2,-1
 132 660 l 1,3,-1
 1057 660 l 1,4,-1
 1057 396 l 2,5,6
 1057 341 1057 341 1018 302 c 0,7,8
 979 264 979 264 924 264 c 2,9,-1
 0 264 l 1,0,-1
1321 1189 m 2,10,11
 1266 1189 1266 1189 1227 1227 c 0,12,13
 1189 1266 1189 1266 1189 1321 c 2,14,-1
 1189 1981 l 1,15,-1
 1453 1981 l 2,16,17
 1508 1981 1508 1981 1546 1943 c 0,18,19
 1585 1904 1585 1904 1585 1849 c 2,20,-1
 1585 1189 l 1,21,-1
 1321 1189 l 2,10,11
924 1585 m 1,22,-1
 792 1651 l 1,23,-1
 726 1717 l 1,24,-1
 660 1849 l 1,25,-1
 660 3038 l 1,26,-1
 1057 3038 l 1,27,-1
 1057 1585 l 1,28,-1
 924 1585 l 1,22,-1
396 2510 m 1,29,-1
 264 2576 l 1,30,-1
 198 2642 l 1,31,-1
 132 2774 l 1,32,-1
 132 4096 l 1,33,-1
 528 4096 l 1,34,-1
 528 2510 l 1,35,-1
 396 2510 l 1,29,-1
1717 0 m 1,36,-1
 1717 4096 l 1,37,-1
 2114 4096 l 1,38,-1
 2114 132 l 2,39,40
 2114 77 2114 77 2075 38 c 0,41,42
 2036 0 2036 0 1981 0 c 2,43,-1
 1717 0 l 1,36,-1
2246 0 m 1,44,-1
 2246 4096 l 1,45,-1
 2378 4096 l 1,46,-1
 2378 132 l 2,47,48
 2378 77 2378 77 2339 38 c 0,49,50
 2300 0 2300 0 2246 0 c 1,51,-1
 2246 0 l 1,44,-1
EndSplineSet
EndChar

StartChar: t
Encoding: 116 116 71
Width: 2246
Flags: W
LayerCount: 2
Fore
SplineSet
396 0 m 1,0,-1
 264 66 l 1,1,-1
 198 132 l 1,2,-1
 132 264 l 1,3,-1
 132 792 l 1,4,-1
 0 792 l 1,5,-1
 0 924 l 1,6,-1
 396 924 l 2,7,8
 451 924 451 924 489 886 c 0,9,10
 528 847 528 847 528 792 c 2,11,-1
 528 0 l 1,12,-1
 396 0 l 1,0,-1
132 1057 m 2,13,14
 77 1057 77 1057 38 1095 c 0,15,16
 0 1134 0 1134 0 1189 c 2,17,-1
 0 1453 l 1,18,-1
 264 1453 l 2,19,20
 319 1453 319 1453 357 1414 c 0,21,22
 396 1375 396 1375 396 1321 c 2,23,-1
 396 1057 l 1,24,-1
 132 1057 l 2,13,14
1321 0 m 2,25,26
 1266 0 1266 0 1227 38 c 0,27,28
 1189 77 1189 77 1189 132 c 2,29,-1
 1189 924 l 2,30,31
 1189 979 1189 979 1227 1018 c 0,32,33
 1266 1057 1266 1057 1321 1057 c 2,34,-1
 1387 1057 l 2,35,36
 1414 1057 1414 1057 1434 1076 c 0,37,38
 1453 1095 1453 1095 1453 1123 c 2,39,-1
 1453 1453 l 1,40,-1
 1585 1453 l 1,41,-1
 1585 132 l 2,42,43
 1585 77 1585 77 1546 38 c 0,44,45
 1508 0 1508 0 1453 0 c 2,46,-1
 1321 0 l 2,25,26
1717 528 m 1,47,-1
 1717 1453 l 1,48,-1
 1849 1453 l 1,49,-1
 1849 660 l 2,50,51
 1849 605 1849 605 1811 567 c 0,52,53
 1772 528 1772 528 1717 528 c 1,54,-1
 1717 528 l 1,47,-1
792 0 m 2,55,56
 737 0 737 0 699 38 c 0,57,58
 660 77 660 77 660 132 c 2,59,-1
 660 4096 l 1,60,-1
 1057 4096 l 1,61,-1
 1057 132 l 2,62,63
 1057 77 1057 77 1095 38 c 0,64,65
 1134 0 1134 0 1189 0 c 1,66,-1
 792 0 l 2,55,56
EndSplineSet
EndChar

StartChar: u
Encoding: 117 117 72
Width: 2510
Flags: W
LayerCount: 2
Fore
SplineSet
1585 528 m 1,0,-1
 1585 3237 l 2,1,2
 1585 3264 1585 3264 1566 3283 c 0,3,4
 1546 3303 1546 3303 1519 3303 c 2,5,-1
 1057 3303 l 1,6,-1
 1057 3435 l 1,7,-1
 1123 3567 l 1,8,-1
 1189 3633 l 1,9,-1
 1321 3699 l 1,10,-1
 1783 3699 l 2,11,12
 1811 3699 1811 3699 1830 3680 c 0,13,14
 1849 3660 1849 3660 1849 3633 c 2,15,-1
 1849 660 l 2,16,17
 1849 605 1849 605 1811 567 c 0,18,19
 1772 528 1772 528 1717 528 c 2,20,-1
 1585 528 l 1,0,-1
1981 528 m 1,21,-1
 1981 3831 l 1,22,-1
 2114 3831 l 1,23,-1
 2114 660 l 2,24,25
 2114 605 2114 605 2075 567 c 0,26,27
 2036 528 2036 528 1981 528 c 1,28,-1
 1981 528 l 1,21,-1
132 0 m 2,29,30
 77 0 77 0 38 38 c 0,31,32
 0 77 0 77 0 132 c 2,33,-1
 0 4096 l 1,34,-1
 528 4096 l 1,35,-1
 528 396 l 1,36,-1
 2114 396 l 1,37,-1
 2114 132 l 2,38,39
 2114 77 2114 77 2075 38 c 0,40,41
 2036 0 2036 0 1981 0 c 2,42,-1
 132 0 l 2,29,30
EndSplineSet
EndChar

StartChar: v
Encoding: 118 118 73
Width: 2510
Flags: W
LayerCount: 2
Fore
SplineSet
792 0 m 1,0,-1
 792 132 l 1,1,2
 847 132 847 132 886 170 c 0,3,4
 924 209 924 209 924 264 c 2,5,-1
 924 1717 l 2,6,7
 924 1772 924 1772 963 1811 c 0,8,9
 1002 1849 1002 1849 1057 1849 c 2,10,-1
 1321 1849 l 1,11,-1
 1321 0 l 1,12,-1
 792 0 l 1,0,-1
264 1981 m 1,13,-1
 132 2048 l 1,14,-1
 66 2114 l 1,15,-1
 0 2246 l 1,16,-1
 0 2510 l 1,17,18
 0 2455 0 2455 38 2417 c 0,19,20
 77 2378 77 2378 132 2378 c 2,21,-1
 1321 2378 l 1,22,-1
 1321 1981 l 1,23,-1
 264 1981 l 1,13,-1
132 2510 m 2,24,25
 77 2510 77 2510 38 2549 c 0,26,27
 0 2587 0 2587 0 2642 c 2,28,-1
 0 3303 l 1,29,-1
 132 3303 l 1,30,-1
 132 3435 l 1,31,-1
 0 3435 l 1,32,-1
 0 3567 l 1,33,-1
 132 3567 l 1,34,-1
 132 3963 l 1,35,-1
 0 3963 l 1,36,-1
 0 4096 l 1,37,-1
 528 4096 l 1,38,-1
 528 2510 l 1,39,-1
 132 2510 l 2,24,25
1453 1981 m 1,40,-1
 1453 3963 l 2,41,42
 1453 4018 1453 4018 1492 4057 c 0,43,44
 1530 4096 1530 4096 1585 4096 c 2,45,-1
 1717 4096 l 1,46,-1
 1717 2114 l 2,47,48
 1717 2059 1717 2059 1678 2020 c 0,49,50
 1640 1981 1640 1981 1585 1981 c 2,51,-1
 1453 1981 l 1,40,-1
1849 1981 m 1,52,-1
 1849 4096 l 1,53,-1
 2114 4096 l 1,54,-1
 2114 3963 l 1,55,56
 2059 3963 2059 3963 2020 3925 c 0,57,58
 1981 3886 1981 3886 1981 3831 c 2,59,-1
 1981 2114 l 2,60,61
 1981 2059 1981 2059 1943 2020 c 0,62,63
 1904 1981 1904 1981 1849 1981 c 1,64,-1
 1849 1981 l 1,52,-1
EndSplineSet
EndChar

StartChar: w
Encoding: 119 119 74
Width: 3038
Flags: W
LayerCount: 2
Fore
SplineSet
264 0 m 1,0,-1
 132 66 l 1,1,-1
 66 132 l 1,2,-1
 0 264 l 1,3,-1
 0 2510 l 1,4,-1
 132 2510 l 1,5,-1
 132 2642 l 1,6,-1
 0 2642 l 1,7,-1
 0 2774 l 1,8,-1
 132 2774 l 1,9,-1
 132 2906 l 1,10,-1
 0 2906 l 1,11,-1
 0 3038 l 1,12,-1
 132 3038 l 1,13,-1
 132 3171 l 1,14,-1
 0 3171 l 1,15,-1
 0 3831 l 1,16,-1
 66 3963 l 1,17,-1
 132 4029 l 1,18,-1
 264 4096 l 1,19,-1
 528 4096 l 1,20,-1
 528 528 l 2,21,22
 528 473 528 473 567 435 c 0,23,24
 605 396 605 396 660 396 c 2,25,-1
 2642 396 l 1,26,-1
 2642 0 l 1,27,-1
 264 0 l 1,0,-1
660 3699 m 1,28,-1
 660 4096 l 1,29,-1
 1849 4096 l 1,30,-1
 1849 3699 l 1,31,-1
 660 3699 l 1,28,-1
1981 528 m 1,32,-1
 1981 4096 l 1,33,-1
 2378 4096 l 1,34,-1
 2378 660 l 2,35,36
 2378 605 2378 605 2339 567 c 0,37,38
 2300 528 2300 528 2246 528 c 2,39,-1
 1981 528 l 1,32,-1
2510 528 m 1,40,-1
 2510 4096 l 1,41,-1
 2642 4096 l 1,42,-1
 2642 660 l 2,43,44
 2642 605 2642 605 2603 567 c 0,45,46
 2565 528 2565 528 2510 528 c 1,47,-1
 2510 528 l 1,40,-1
EndSplineSet
EndChar

StartChar: x
Encoding: 120 120 75
Width: 3038
Flags: W
LayerCount: 2
Fore
SplineSet
2510 264 m 1,0,-1
 2510 924 l 1,1,-1
 2642 924 l 1,2,-1
 2642 396 l 2,3,4
 2642 341 2642 341 2603 302 c 0,5,6
 2565 264 2565 264 2510 264 c 1,7,-1
 2510 264 l 1,0,-1
132 0 m 2,8,9
 77 0 77 0 38 38 c 0,10,11
 0 77 0 77 0 132 c 2,12,-1
 0 2246 l 1,13,-1
 66 2378 l 1,14,-1
 132 2444 l 1,15,-1
 264 2510 l 1,16,-1
 528 2510 l 1,17,-1
 528 462 l 2,18,19
 528 435 528 435 547 415 c 0,20,21
 567 396 567 396 594 396 c 2,22,-1
 2246 396 l 2,23,24
 2300 396 2300 396 2339 435 c 0,25,26
 2378 473 2378 473 2378 528 c 1,27,-1
 2378 264 l 1,28,-1
 2312 132 l 1,29,-1
 2246 66 l 1,30,-1
 2114 0 l 1,31,-1
 132 0 l 2,8,9
660 528 m 1,32,-1
 660 792 l 1,33,-1
 1981 792 l 1,34,-1
 1981 2510 l 1,35,-1
 2114 2510 l 1,36,-1
 2246 2444 l 1,37,-1
 2312 2378 l 1,38,-1
 2378 2246 l 1,39,-1
 2378 660 l 2,40,41
 2378 605 2378 605 2339 567 c 0,42,43
 2300 528 2300 528 2246 528 c 2,44,-1
 660 528 l 1,32,-1
924 2906 m 1,45,-1
 924 3831 l 1,46,-1
 990 3963 l 1,47,-1
 1057 4029 l 1,48,-1
 1189 4096 l 1,49,-1
 1321 4096 l 1,50,-1
 1321 3038 l 2,51,52
 1321 2984 1321 2984 1282 2945 c 256,53,54
 1243 2906 1243 2906 1189 2906 c 2,55,-1
 924 2906 l 1,45,-1
1453 2906 m 1,56,-1
 1453 4096 l 1,57,-1
 1585 4096 l 1,58,-1
 1585 3038 l 2,59,60
 1585 2984 1585 2984 1546 2945 c 0,61,62
 1508 2906 1508 2906 1453 2906 c 1,63,-1
 1453 2906 l 1,56,-1
EndSplineSet
EndChar

StartChar: y
Encoding: 121 121 76
Width: 2642
Flags: W
LayerCount: 2
Fore
SplineSet
264 0 m 1,0,-1
 132 66 l 1,1,-1
 66 132 l 1,2,-1
 0 264 l 1,3,-1
 0 4029 l 2,4,5
 0 4057 0 4057 19 4076 c 0,6,7
 38 4096 38 4096 66 4096 c 2,8,-1
 528 4096 l 1,9,-1
 528 462 l 2,10,11
 528 435 528 435 547 415 c 0,12,13
 567 396 567 396 594 396 c 2,14,-1
 1585 396 l 1,15,-1
 1585 264 l 1,16,-1
 1519 132 l 1,17,-1
 1453 66 l 1,18,-1
 1321 0 l 1,19,-1
 264 0 l 1,0,-1
660 2642 m 1,20,-1
 660 4096 l 1,21,-1
 1057 4096 l 1,22,-1
 1057 2774 l 2,23,24
 1057 2719 1057 2719 1018 2681 c 0,25,26
 979 2642 979 2642 924 2642 c 2,27,-1
 660 2642 l 1,20,-1
1585 528 m 1,28,-1
 1585 3963 l 2,29,30
 1585 4018 1585 4018 1624 4057 c 0,31,32
 1662 4096 1662 4096 1717 4096 c 2,33,-1
 1981 4096 l 1,34,-1
 1981 792 l 1,35,-1
 1915 660 l 1,36,-1
 1849 594 l 1,37,-1
 1717 528 l 1,38,-1
 1585 528 l 1,28,-1
2114 1321 m 1,39,-1
 2114 4096 l 1,40,-1
 2246 4096 l 1,41,-1
 2246 1453 l 2,42,43
 2246 1398 2246 1398 2207 1360 c 0,44,45
 2168 1321 2168 1321 2114 1321 c 1,46,-1
 2114 1321 l 1,39,-1
EndSplineSet
EndChar

StartChar: z
Encoding: 122 122 77
Width: 2906
Flags: W
LayerCount: 2
Fore
SplineSet
660 0 m 1,0,-1
 660 396 l 1,1,-1
 1585 396 l 1,2,-1
 1585 0 l 1,3,-1
 660 0 l 1,0,-1
264 0 m 1,4,-1
 132 66 l 1,5,-1
 66 132 l 1,6,-1
 0 264 l 1,7,-1
 0 660 l 1,8,-1
 264 660 l 1,9,-1
 396 594 l 1,10,-1
 462 528 l 1,11,-1
 528 396 l 1,12,-1
 528 0 l 1,13,-1
 264 0 l 1,4,-1
1717 0 m 1,14,-1
 1717 396 l 1,15,-1
 1783 396 l 2,16,17
 1811 396 1811 396 1830 415 c 0,18,19
 1849 435 1849 435 1849 462 c 2,20,-1
 1849 1849 l 1,21,-1
 2378 1849 l 1,22,-1
 2378 264 l 1,23,-1
 2312 132 l 1,24,-1
 2246 66 l 1,25,-1
 2114 0 l 1,26,-1
 1717 0 l 1,14,-1
396 1849 m 1,27,-1
 396 2246 l 2,28,29
 396 2301 396 2301 435 2339 c 0,30,31
 473 2378 473 2378 528 2378 c 2,32,-1
 2510 2378 l 1,33,-1
 2510 1981 l 1,34,-1
 924 1981 l 2,35,36
 870 1981 870 1981 831 1943 c 0,37,38
 792 1904 792 1904 792 1849 c 1,39,-1
 396 1849 l 1,27,-1
1849 2510 m 1,40,-1
 1849 3963 l 2,41,42
 1849 4018 1849 4018 1888 4057 c 256,43,44
 1927 4096 1927 4096 1981 4096 c 2,45,-1
 2510 4096 l 1,46,-1
 2510 3567 l 1,47,48
 2455 3567 2455 3567 2417 3528 c 0,49,50
 2378 3490 2378 3490 2378 3435 c 2,51,-1
 2378 2510 l 1,52,-1
 1849 2510 l 1,40,-1
EndSplineSet
EndChar
